<?xml version="1.0" encoding="utf-8"?>
<!-- Generator: Adobe Illustrator 22.0.1, SVG Export Plug-In . SVG Version: 6.00 Build 0)  -->
<svg version="1.1" id="Capa_1" xmlns="http://www.w3.org/2000/svg" xmlns:xlink="http://www.w3.org/1999/xlink" x="0px" y="0px"
	 viewBox="0 0 575.6 144.3" style="enable-background:new 0 0 575.6 144.3;" xml:space="preserve">
<style type="text/css">
	.Arqueado:_x0020_verde{fill:url(#SVGID_1_);stroke:#FFFFFF;stroke-width:0.25;stroke-miterlimit:1;}
	.st0{fill:#F4BC46;}
</style>
<linearGradient id="SVGID_1_" gradientUnits="userSpaceOnUse" x1="-133.4933" y1="378.5102" x2="-132.7862" y2="377.8031">
	<stop  offset="0" style="stop-color:#259E2E"/>
	<stop  offset="0.9831" style="stop-color:#1C381D"/>
</linearGradient>
<g>
	<path class="st0" d="M250.1,116c-6.6,6.8-15.1,10.2-25.6,10.2c-9.9,0-18.3-3.2-25.1-9.5c-6.8-6.3-10.3-15.4-10.3-27
		c0-5.4,0.9-10.5,2.7-15.2c1.8-4.7,4.3-8.8,7.6-12.1c3.2-3.3,7-5.8,11.3-7.6c4.3-1.7,8.9-2.6,13.9-2.6c5.4,0,10.3,0.9,14.7,2.6
		c4.4,1.7,9,5.1,13.7,10.2c4.7,5,7.1,13.1,7.1,24C260.1,100.4,256.8,109.4,250.1,116z M224.3,66.4c-5.5,0-9.7,2.1-12.6,6.2
		c-2.9,4.1-4.3,9.7-4.3,16.6c0,7,1.5,12.6,4.6,16.8c3.1,4.2,7.3,6.3,12.7,6.3c5.5,0,9.7-2.1,12.6-6.2c2.9-4.1,4.3-9.8,4.3-16.9
		c0-6.9-1.5-12.4-4.6-16.6C234.1,68.5,229.8,66.4,224.3,66.4z"/>
	<path class="st0" d="M286.1,126.2c-5.6,0-9.7-1.4-12.4-4.3c-2.6-2.8-4-6.6-4-11.3V25l18-6.4v84.1c0,2.7,0.3,4.6,1,5.7
		c0.7,1.1,1.9,1.6,3.8,1.6c1.4,0,3.1-0.2,5.2-0.7l2.2,13.3c-2.4,1.3-4.7,2.2-7,2.8C290.7,126,288.4,126.2,286.1,126.2z"/>
	<path class="st0" d="M351.5,124.7l-3-6.3c-2.6,2.3-5.6,4.2-9,5.6c-3.4,1.5-7.2,2.2-11.5,2.2c-6.6,0-12.1-2.1-16.6-6.2
		c-4.4-4.1-6.7-9.6-6.7-16.5c0-7.3,2.6-12.9,7.9-17c5.3-4.1,12.5-6.1,21.7-6.1l12.6-0.6V78c0-4-1.2-7-3.7-9c-2.5-2-5.7-3-9.7-3
		c-3.8,0-7.1,0.4-9.8,1.3c-2.7,0.9-5.6,2.2-8.5,3.9L309.4,60c4.5-3,8.9-5,13.2-6.1c4.3-1.1,9.1-1.6,14.5-1.6c9.2,0,16.2,2,21,6.1
		c4.8,4,7.2,10.6,7.2,19.7v28c0,9.7,0.4,15.9,1.3,18.7H351.5z M347,92.4l-10.2,0.3c-9.4,0-14.1,3.2-14.1,9.5c0,3.1,1,5.5,2.9,7.2
		c1.9,1.7,4.8,2.6,8.6,2.6c3,0,5.5-0.4,7.4-1.2c1.9-0.8,3.7-1.9,5.3-3.3V92.4z"/>
	<path class="st0" d="M415.8,70.5c-1.3-0.8-2.7-1.4-4.1-1.7c-1.4-0.4-2.9-0.5-4.3-0.5c-4.5,0-9,2.1-13.6,6.3v50.2h-18V59.2l15.1-5.4
		l1.9,7.5c3.6-3.1,7-5.4,10.1-6.9c3.1-1.5,6.3-2.2,9.5-2.2c3.8,0,7.1,1,9.9,3L415.8,70.5z"/>
	<path class="st0" d="M437.4,47.6c-3,0-5.6-1-7.8-3.1c-2.2-2.1-3.3-4.7-3.3-7.8c0-3,1-5.5,3.1-7.6c2.1-2.1,4.7-3.1,7.9-3.1
		c3.1,0,5.7,1.1,7.9,3.1c2.2,2.1,3.3,4.6,3.3,7.6c0,3-1.1,5.6-3.2,7.7C443.3,46.6,440.6,47.6,437.4,47.6z M428.4,124.7V60.3l18-6.4
		v70.9H428.4z"/>
	<path class="st0" d="M471.6,94c0,5.2,1.9,9.5,5.8,12.8c3.8,3.3,8.6,5,14.2,5c3.4,0,6.5-0.4,9.4-1.2c2.8-0.8,5.9-2,9.1-3.7l4.3,11.5
		c-3.8,2.7-7.9,4.7-12.4,5.9c-4.4,1.3-8.9,1.9-13.4,1.9c-11.6,0-20.4-3.6-26.3-10.7c-5.9-7.1-8.9-15.9-8.9-26.3
		c0-10.4,2.9-19.2,8.8-26.3c5.8-7.1,13.7-10.7,23.4-10.7c9.6,0,17.3,3.3,23.1,10c5.8,6.7,8.7,15.5,8.7,26.5V94H471.6z M485.2,65.7
		c-4.2,0-7.6,1.6-10.1,4.6c-2.5,3.1-3.8,6.7-3.8,10.9h27.6c0-4.2-1.2-7.8-3.5-10.9C493,67.2,489.6,65.7,485.2,65.7z"/>
	<path class="st0" d="M563.5,70.5c-1.3-0.8-2.7-1.4-4.1-1.7c-1.4-0.4-2.9-0.5-4.3-0.5c-4.5,0-9,2.1-13.6,6.3v50.2h-18V59.2l15.1-5.4
		l1.9,7.5c3.6-3.1,7-5.4,10.1-6.9c3.1-1.5,6.3-2.2,9.5-2.2c3.8,0,7.1,1,9.9,3L563.5,70.5z"/>
	<path class="st0" d="M179.5,34.2c-6.4-5.5-15-8.2-25.9-8.2l-25.3,0v43.9l18,6.1V41.1h5.4c6.2,0,11,1.6,14.2,4.7
		c3.3,3.2,4.9,7.2,4.9,12.3c0,5.7-1.6,10.1-4.7,13.2C163,74.5,158.3,76,152,76h-5.7v0l-18,6.4v42.3h18V90.3h5
		c12.9,0,22.5-3.3,28.6-10c6.2-6.7,9.2-14.2,9.2-22.5C189.1,47.6,185.9,39.7,179.5,34.2z"/>
	<g>
		<g>
			<polygon class="st0" points="65.8,100.2 84.9,92.2 116.4,136.5 95.8,142.5 			"/>
		</g>
		<polygon class="st0" points="75.2,41.2 89.5,1 70.4,9 61.2,34.9 		"/>
		<polygon class="st0" points="23.8,23.8 4.8,31.9 34.7,74.1 20.5,114.4 38.6,109.1 53.8,66.1 		"/>
	</g>
</g>
<g>
</g>
<g>
</g>
<g>
</g>
<g>
</g>
<g>
</g>
<g>
</g>
</svg>
