<?xml version="1.0" standalone="no"?>
<!DOCTYPE svg PUBLIC "-//W3C//DTD SVG 1.1//EN" "http://www.w3.org/Graphics/SVG/1.1/DTD/svg11.dtd" >
<svg xmlns="http://www.w3.org/2000/svg">
<metadata>Generated by IcoMoon</metadata>
<defs>
<font id="icomoon" horiz-adv-x="1024">
<font-face units-per-em="1024" ascent="960" descent="-64" />
<missing-glyph horiz-adv-x="1024" />
<glyph unicode="&#x20;" horiz-adv-x="512" d="" />
<glyph unicode="&#xe900;" glyph-name="menu_SAT" d="M964.693 149.333l-387.413 387.84c39.68 99.84 20.053 217.6-61.44 298.667-98.133 98.133-250.88 107.093-359.68 27.733l163.84-164.267-60.587-59.307-163.413 162.56c-79.36-108.373-70.4-261.547 27.733-359.253 79.36-79.36 194.987-100.267 293.973-63.147l388.693-388.693c16.64-16.64 43.52-16.64 60.16 0l98.133 98.133c16.64 17.067 16.64 43.093 0 59.733zM836.693 81.493l-403.627 403.627c-26.027-19.2-55.040-30.72-85.333-34.987-58.027-8.533-119.040 8.96-163.413 53.333-40.533 40.107-59.307 93.867-56.32 146.773l131.84-131.84 180.907 180.907-131.84 132.693c53.76 2.133 106.24-16.64 146.773-56.747 46.080-46.080 63.573-109.653 52.907-168.96-5.12-30.293-17.92-58.453-37.547-83.627l403.627-403.2-37.973-37.973z" />
<glyph unicode="&#xe901;" glyph-name="menu_ControlCalidad" d="M554.667 873.387v-86.187c187.307-23.040 320-193.28 296.96-380.587-19.627-155.307-141.653-278.613-296.96-296.96v-85.333c234.667 23.467 405.333 231.68 381.867 466.347-19.2 202.667-180.053 362.667-381.867 382.72zM469.333 872.107c-83.2-8.107-162.56-40.107-227.413-93.867l61.013-63.147c47.787 38.4 105.387 63.147 166.4 71.68v85.333zM181.76 718.080c-53.76-64.853-85.76-143.787-94.293-227.413h85.333c8.107 60.587 32 118.187 69.973 166.4l-61.013 61.013zM661.333 597.333l-208.213-208.213-90.453 90.453-45.227-45.227 135.68-135.68 253.44 253.44-45.227 45.227zM87.893 405.333c8.533-83.627 41.387-162.56 94.293-227.413l60.587 61.013c-37.547 48.213-61.867 105.813-69.547 166.4h-85.333zM302.933 176.213l-61.013-58.453c64.427-53.76 143.787-87.467 227.413-96.427v85.333c-60.587 7.68-118.187 32-166.4 69.547z" />
<glyph unicode="&#xe902;" glyph-name="menu_Dasboards" d="M896 277.333v512h-768v-512h768zM896 874.667c47.128 0 85.333-38.205 85.333-85.333v0-512c0-47.128-38.205-85.333-85.333-85.333v0h-298.667v-85.333h85.333v-85.333h-341.333v85.333h85.333v85.333h-298.667c-47.36 0-85.333 38.4-85.333 85.333v512c0 47.36 37.973 85.333 85.333 85.333h768zM213.333 704h384v-213.333h-384v213.333zM640 704h170.667v-85.333h-170.667v85.333zM810.667 576v-213.333h-170.667v213.333h170.667zM213.333 448h170.667v-85.333h-170.667v85.333zM426.667 448h170.667v-85.333h-170.667v85.333z" />
<glyph unicode="&#xe903;" glyph-name="menu_Informes" d="M938.667 64h-853.333v768h85.333v-682.667h85.333v384h170.667v-384h85.333v554.667h170.667v-554.667h85.333v213.333h170.667v-298.667z" />
<glyph unicode="&#xe904;" glyph-name="menu_Inventarios" d="M896 149.333v85.333h-554.667v-85.333h554.667zM896 405.333v85.333h-554.667v-85.333h554.667zM341.333 661.333h554.667v85.333h-554.667v-85.333zM170.667 746.667v-85.333h85.333v85.333h-85.333zM128 746.667c0 23.564 19.103 42.667 42.667 42.667v0h85.333c23.564 0 42.667-19.103 42.667-42.667v0-85.333c0-23.564-19.103-42.667-42.667-42.667v0h-85.333c-23.564 0-42.667 19.103-42.667 42.667v0 85.333zM170.667 490.667v-85.333h85.333v85.333h-85.333zM128 490.667c0 23.564 19.103 42.667 42.667 42.667v0h85.333c23.564 0 42.667-19.103 42.667-42.667v0-85.333c0-23.564-19.103-42.667-42.667-42.667v0h-85.333c-23.564 0-42.667 19.103-42.667 42.667v0 85.333zM170.667 234.667v-85.333h85.333v85.333h-85.333zM128 234.667c0 23.564 19.103 42.667 42.667 42.667v0h85.333c23.564 0 42.667-19.103 42.667-42.667v0-85.333c0-23.564-19.103-42.667-42.667-42.667v0h-85.333c-23.564 0-42.667 19.103-42.667 42.667v0 85.333z" />
<glyph unicode="&#xe905;" glyph-name="menu_Logstica" d="M768 170.667c35.413 0 64 28.587 64 64s-28.587 64-64 64c-35.413 0-64-28.587-64-64s28.587-64 64-64zM832 554.667h-106.667v-106.667h190.293l-83.627 106.667zM256 170.667c35.413 0 64 28.587 64 64s-28.587 64-64 64c-35.413 0-64-28.587-64-64s28.587-64 64-64zM853.333 618.667l128-170.667v-213.333h-85.333c0-70.827-57.173-128-128-128s-128 57.173-128 128h-256c0-70.827-57.173-128-128-128s-128 57.173-128 128h-85.333v469.333c0 47.36 37.973 85.333 85.333 85.333h597.333v-170.667h128zM128 704v-384h32.427c23.467 26.027 57.6 42.667 95.573 42.667s72.107-16.64 95.573-42.667h288.427v384h-512z" />
<glyph unicode="&#xe906;" glyph-name="menu_ParmetrosGenerales" d="M298.667 832h-85.333v-256h85.333v256zM810.667 832h-85.333v-426.667h85.333v426.667zM128 405.333h85.333v-341.333h85.333v341.333h85.333v85.333h-256v-85.333zM640 661.333h-85.333v170.667h-85.333v-170.667h-85.333v-85.333h256v85.333zM469.333 64h85.333v426.667h-85.333v-426.667zM640 320v-85.333h85.333v-170.667h85.333v170.667h85.333v85.333h-256z" />
<glyph unicode="&#xe907;" glyph-name="menu_Produccion" d="M632.747 483.413c66.56-66.56 66.56-174.933 0-241.493s-174.933-66.56-241.493 0l241.493 241.493zM256 874.667h512c47.128 0 85.333-38.205 85.333-85.333v0-682.667c0-47.128-38.205-85.333-85.333-85.333v0h-512c-47.128 0-85.333 38.205-85.333 85.333v0 682.667c0 47.128 38.205 85.333 85.333 85.333v0zM298.667 789.333c-23.564 0-42.667-19.103-42.667-42.667v0c0-23.564 19.103-42.667 42.667-42.667v0c23.564 0 42.667 19.103 42.667 42.667v0c0 23.564-19.103 42.667-42.667 42.667v0zM426.667 789.333c-23.564 0-42.667-19.103-42.667-42.667v0c0-23.564 19.103-42.667 42.667-42.667v0c23.564 0 42.667 19.103 42.667 42.667v0c0 23.564-19.103 42.667-42.667 42.667v0zM512 618.667c-141.385 0-256-114.615-256-256v0c0-141.385 114.615-256 256-256v0c141.385 0 256 114.615 256 256v0c0 141.385-114.615 256-256 256v0z" />
<glyph unicode="&#xe908;" glyph-name="menu_RRHH" d="M557.653 515.84c24.916 34.462 39.853 77.567 39.853 124.16s-14.937 89.698-40.284 124.787l0.431-0.627c22.824 15.761 51.083 25.176 81.541 25.176 0.283 0 0.566-0.001 0.849-0.002h-0.043c82.475 0 149.333-66.859 149.333-149.333s-66.859-149.333-149.333-149.333v0c-0.239-0.001-0.522-0.002-0.805-0.002-30.458 0-58.717 9.414-82.027 25.492l0.485-0.316zM234.667 640c0 82.475 66.859 149.333 149.333 149.333s149.333-66.859 149.333-149.333c0-82.475-66.859-149.333-149.333-149.333v0c-82.475 0-149.333 66.859-149.333 149.333v0zM320 640c0-35.346 28.654-64 64-64s64 28.654 64 64c0 35.346-28.654 64-64 64v0c-35.346 0-64-28.654-64-64v0zM682.667 234.667v-85.333h-597.333v85.333s0 170.667 298.667 170.667 298.667-170.667 298.667-170.667zM597.333 234.667c-5.973 33.28-56.747 85.333-213.333 85.333s-210.347-55.893-213.333-85.333zM680.533 405.333c51.355-40.213 84.786-101.281 87.454-170.241l0.013-0.426v-85.333h170.667v85.333s0 154.88-258.56 170.667z" />
<glyph unicode="&#xe909;" glyph-name="menu_Valet" d="M682.667 64h-341.333c-23.564 0-42.667 19.103-42.667 42.667v0 338.347l-55.467-44.8c-16.64-16.213-43.52-16.213-60.16 0l-120.747 120.747c-16.64 16.64-16.64 43.52 0 60.16l250.88 250.88h70.827c0-46.933 57.173-85.333 128-85.333s128 38.4 128 85.333h70.827l250.88-250.88c16.64-16.64 16.64-43.52 0-60.16l-120.747-120.747c-16.64-16.213-43.52-16.213-60.16 0l-55.467 44.8v-338.347c0-23.564-19.103-42.667-42.667-42.667v0zM871.253 551.253l-183.893 183.467c-13.227-14.933-29.013-28.16-47.36-39.253-35.84-21.333-79.787-34.133-128-34.133-72.533 0-136.96 29.013-175.36 73.387l-183.893-183.467 60.587-60.587 128 85.333h42.667v-426.667h256v426.667h42.667l128-85.333 60.587 60.587z" />
<glyph unicode="&#xe90a;" glyph-name="inf_Auditoras" d="M554.667 873.387v-86.187c187.307-23.040 320-193.28 296.96-380.587-19.627-155.307-141.653-278.613-296.96-296.96v-85.333c234.667 23.467 405.333 231.68 381.867 466.347-19.2 202.667-180.053 362.667-381.867 382.72zM469.333 872.107c-83.2-8.107-162.56-40.107-227.413-93.867l61.013-63.147c47.787 38.4 105.387 63.147 166.4 71.68v85.333zM181.76 718.080c-53.76-64.853-85.76-143.787-94.293-227.413h85.333c8.107 60.587 32 118.187 69.973 166.4l-61.013 61.013zM661.333 597.333l-208.213-208.213-90.453 90.453-45.227-45.227 135.68-135.68 253.44 253.44-45.227 45.227zM87.893 405.333c8.533-83.627 41.387-162.56 94.293-227.413l60.587 61.013c-37.547 48.213-61.867 105.813-69.547 166.4h-85.333zM302.933 176.213l-61.013-58.453c64.427-53.76 143.787-87.467 227.413-96.427v85.333c-60.587 7.68-118.187 32-166.4 69.547z" />
<glyph unicode="&#xe90b;" glyph-name="inf_BalancePedidosRepartos" d="M512 832c-54.187 0-102.4-34.133-120.32-85.333h-263.68v-85.333h83.2l-125.867-298.667c-20.053-85.333 42.667-128 149.333-128s173.227 42.667 149.333 128l-125.867 298.667h133.12c14.080-36.267 41.813-64 78.080-78.080v-476.587h-384v-85.333h853.333v85.333h-384v477.013c36.267 13.653 64 41.387 77.653 77.653h133.547l-125.867-298.667c-20.053-85.333 42.667-128 149.333-128s173.227 42.667 149.333 128l-125.867 298.667h83.2v85.333h-263.253c-18.347 51.2-66.56 85.333-120.747 85.333zM512 746.667c23.564 0 42.667-19.103 42.667-42.667v0c0-23.564-19.103-42.667-42.667-42.667v0c-23.564 0-42.667 19.103-42.667 42.667v0c0 23.564 19.103 42.667 42.667 42.667v0zM234.667 522.667l64-160h-128l64 160zM789.333 522.667l64-160h-128l64 160z" />
<glyph unicode="&#xe90c;" glyph-name="inf_Lenceria" d="M512 874.667c-235.641 0-426.667-191.025-426.667-426.667v0c0-235.641 191.025-426.667 426.667-426.667v0c235.641 0 426.667 191.025 426.667 426.667v0c0 235.641-191.025 426.667-426.667 426.667v0zM512 789.333c188.513 0 341.333-152.82 341.333-341.333v0c0-102.4-42.667-192-115.2-256-59.733 55.467-140.8 85.333-226.133 85.333s-162.133-29.867-226.133-85.333c-72.533 64-115.2 153.6-115.2 256 0 188.513 152.82 341.333 341.333 341.333v0zM597.333 708.693c-16.213-0.427-31.573-11.093-38.4-27.733l-55.040-137.813-4.267-9.813c-30.293-5.547-55.467-25.6-66.987-53.76-17.493-43.947 3.84-93.44 47.787-110.933s93.44 3.84 110.933 47.787c11.093 28.16 5.973 60.587-12.373 84.48l4.267 11.093 55.040 136.96 0.427 1.28c8.533 21.76-2.133 46.507-23.893 55.467-5.547 2.133-11.093 2.987-17.493 2.987zM426.667 704c-23.564 0-42.667-19.103-42.667-42.667v0c0-23.564 19.103-42.667 42.667-42.667v0c23.564 0 42.667 19.103 42.667 42.667v0c0 23.564-19.103 42.667-42.667 42.667v0zM298.667 576c-23.564 0-42.667-19.103-42.667-42.667v0c0-23.564 19.103-42.667 42.667-42.667v0c23.564 0 42.667 19.103 42.667 42.667v0c0 23.564-19.103 42.667-42.667 42.667v0zM725.333 576c-23.564 0-42.667-19.103-42.667-42.667v0c0-23.564 19.103-42.667 42.667-42.667v0c23.564 0 42.667 19.103 42.667 42.667v0c0 23.564-19.103 42.667-42.667 42.667v0z" />
<glyph unicode="&#xe90d;" glyph-name="inf_PreventivoSAT" d="M823.893 153.6c18.773 29.44 29.44 64.853 29.44 102.4 0 106.667-85.333 192-192 192s-192-85.333-192-192 85.333-192 192-192c37.12 0 72.107 10.667 101.547 29.013l133.12-130.987 59.307 59.307-131.413 132.267zM661.333 149.333c-58.88 0-106.667 47.787-106.667 106.667s47.787 106.667 106.667 106.667 106.667-47.787 106.667-106.667-47.787-106.667-106.667-106.667zM409.173 140.8l-281.173 218.88 69.12 53.76 186.88-145.493c0-4.267 0-8.107 0-11.947 0-40.96 9.387-80.213 25.173-115.2zM405.333 360.96l-277.333 215.040 384 298.667 384-298.667-99.84-77.653c-29.867 16.213-62.72 27.307-97.707 32l58.453 45.653-244.907 190.72-244.907-190.72 182.187-141.653c-18.347-22.187-33.707-46.933-43.947-73.387z" />
<glyph unicode="&#xe90e;" glyph-name="inf_Facturacion" d="M512 874.667c235.641 0 426.667-191.025 426.667-426.667v0c0-235.641-191.025-426.667-426.667-426.667v0c-235.641 0-426.667 191.025-426.667 426.667v0c0 235.641 191.025 426.667 426.667 426.667v0zM512 789.333c-188.513 0-341.333-152.82-341.333-341.333v0c0-188.513 152.82-341.333 341.333-341.333v0c188.513 0 341.333 152.82 341.333 341.333v0c0 188.513-152.82 341.333-341.333 341.333v0zM469.333 234.667v42.667h-85.333v85.333h170.667v42.667h-128c-23.564 0-42.667 19.103-42.667 42.667v0 128c0 23.564 19.103 42.667 42.667 42.667v0h42.667v42.667h85.333v-42.667h85.333v-85.333h-170.667v-42.667h128c23.564 0 42.667-19.103 42.667-42.667v0-128c0-23.564-19.103-42.667-42.667-42.667v0h-42.667v-42.667h-85.333z" />
<glyph unicode="&#xe90f;" glyph-name="inf_GestionMantenimiento" d="M926.293 94.293l-60.587-60.587c-7.712-7.668-18.343-12.407-30.080-12.407s-22.368 4.74-30.082 12.409l0.002-0.002-506.88 506.027c-12.725-3.83-27.376-6.151-42.531-6.398l-0.136-0.002c-94.204 0.069-170.545 76.453-170.545 170.667 0 19.863 3.393 38.933 9.631 56.662l-0.367-1.196 108.373-108.373 105.813 105.813-108.373 108.373c16.534 5.872 35.604 9.265 55.467 9.265 94.214 0 170.597-76.341 170.667-170.538v-0.007c-0.249-15.291-2.57-29.942-6.693-43.817l0.293 1.15 506.027-506.88c7.668-7.712 12.407-18.343 12.407-30.080s-4.74-22.368-12.409-30.082l0.002 0.002zM97.707 154.453c-7.668-7.712-12.407-18.343-12.407-30.080s4.74-22.368 12.409-30.082l60.585-60.585c7.712-7.668 18.343-12.407 30.080-12.407s22.368 4.74 30.082 12.409l-0.002-0.002 233.387 232.96-120.747 120.747zM853.333 874.667l-170.667-85.333v-85.333l-92.587-92.587 85.333-85.333 92.587 92.587h85.333l85.333 170.667z" />
<glyph unicode="&#xe910;" glyph-name="inf_Incidencias" d="M384 21.333c-23.564 0-42.667 19.103-42.667 42.667v0 128h-170.667c-47.128 0-85.333 38.205-85.333 85.333v0 512c0 47.36 38.4 85.333 85.333 85.333h682.667c47.128 0 85.333-38.205 85.333-85.333v0-512c0-47.128-38.205-85.333-85.333-85.333v0h-260.267l-157.867-158.293c-8.533-8.107-19.2-12.373-29.867-12.373v0h-21.333zM426.667 277.333v-131.413l131.413 131.413h295.253v512h-682.667v-512h256zM554.667 533.333h-85.333v170.667h85.333v-170.667zM554.667 362.667h-85.333v85.333h85.333v-85.333z" />
<glyph unicode="&#xe911;" glyph-name="inf_Operativo" d="M896 277.333v512h-768v-512h768zM896 874.667c47.128 0 85.333-38.205 85.333-85.333v0-512c0-47.128-38.205-85.333-85.333-85.333v0h-298.667v-85.333h85.333v-85.333h-341.333v85.333h85.333v85.333h-298.667c-47.36 0-85.333 38.4-85.333 85.333v512c0 47.36 37.973 85.333 85.333 85.333h768zM213.333 704h384v-213.333h-384v213.333zM640 704h170.667v-85.333h-170.667v85.333zM810.667 576v-213.333h-170.667v213.333h170.667zM213.333 448h170.667v-85.333h-170.667v85.333zM426.667 448h170.667v-85.333h-170.667v85.333z" />
<glyph unicode="&#xe912;" glyph-name="inf_Inventarios" d="M170.667 789.333h682.667c47.128 0 85.333-38.205 85.333-85.333v0-512c0-47.128-38.205-85.333-85.333-85.333v0h-682.667c-47.128 0-85.333 38.205-85.333 85.333v0 512c0 47.128 38.205 85.333 85.333 85.333v0zM170.667 704v-512h298.667v512h-298.667zM853.333 192v512h-52.907c10.24-23.040 8.107-45.653 8.107-48.213-2.987-28.587-23.040-58.453-30.293-69.12l-99.413-108.8 141.653 0.853 0.427-52.053-221.867 1.28-1.707 42.667c0 0 130.133 137.813 136.533 150.187 5.973 11.947 30.293 83.2-29.867 83.2-52.48-2.133-46.507-55.467-46.507-55.467l-65.707-0.427c0 0 0.427 28.16 16.213 55.893h-53.333v-512h110.080l-0.427 36.693 41.387 0.427c0 0 38.827 6.827 39.253 44.8 1.707 42.667-34.56 42.667-40.96 42.667-5.547 0-45.653-2.133-45.653-37.12h-64.853c0 0 1.707 87.893 110.507 87.893 110.933 0 104.96-86.187 104.96-86.187s1.707-53.333-47.36-73.387l22.187-15.787h69.547zM380.587 277.333h-64v247.467l-76.8-23.893v52.48l133.973 47.787h6.827v-323.84z" />
<glyph unicode="&#xe913;" glyph-name="inf_Logstica" d="M640 448h64v-181.333l122.027-72.107-32-52.053-154.027 92.16v213.333zM682.667 576c29.44 0 58.453-4.267 85.333-12.373v195.84l-128-49.493v-136.96c14.080 2.987 28.16 2.987 42.667 2.987zM981.333 277.333c0-164.949-133.718-298.667-298.667-298.667v0c-128 0-238.933 81.92-280.747 196.267l-60.587 21.333-227.84-88.32-6.827-1.28c-11.782 0-21.333 9.551-21.333 21.333v0 645.12c0 9.813 6.4 17.493 15.36 20.48l240.64 81.067 256-89.6 227.84 88.32 6.827 1.28c11.782 0 21.333-9.551 21.333-21.333v0-330.667c77.227-53.333 128-143.787 128-245.333zM384 277.333c0 119.040 69.547 221.867 170.667 270.080v162.133l-170.667 59.733v-497.493c0 1.707 0 3.84 0 5.547zM682.667 490.667c-117.821 0-213.333-95.513-213.333-213.333v0c0-117.821 95.513-213.333 213.333-213.333v0c117.821 0 213.333 95.513 213.333 213.333v0c0 117.821-95.513 213.333-213.333 213.333v0zM170.667 727.040v-505.6l128 49.493v499.2l-128-43.093z" />
<glyph unicode="&#xe914;" glyph-name="inf_PartesTrabajo" d="M810.667 832h-178.347c-24.32 66.56-97.707 100.693-162.987 76.8-36.693-12.8-64-40.96-77.653-76.8h-178.347c-47.128 0-85.333-38.205-85.333-85.333v0-597.333c0-47.128 38.205-85.333 85.333-85.333v0h597.333c47.128 0 85.333 38.205 85.333 85.333v0 597.333c0 47.128-38.205 85.333-85.333 85.333v0zM512 832c23.564 0 42.667-19.103 42.667-42.667v0c0-23.564-19.103-42.667-42.667-42.667v0c-23.564 0-42.667 19.103-42.667 42.667v0c0 23.564 19.103 42.667 42.667 42.667v0zM298.667 661.333h426.667v85.333h85.333v-597.333h-597.333v597.333h85.333v-85.333zM725.333 490.667h-426.667v85.333h426.667v-85.333zM640 320h-341.333v85.333h341.333v-85.333z" />
<glyph unicode="&#xe915;" glyph-name="inf_PedidosHuesped" d="M682.667 64h-341.333c-23.564 0-42.667 19.103-42.667 42.667v0 338.347l-55.467-44.8c-16.64-16.213-43.52-16.213-60.16 0l-120.747 120.747c-16.64 16.64-16.64 43.52 0 60.16l250.88 250.88h70.827c0-46.933 57.173-85.333 128-85.333s128 38.4 128 85.333h70.827l250.88-250.88c16.64-16.64 16.64-43.52 0-60.16l-120.747-120.747c-16.64-16.213-43.52-16.213-60.16 0l-55.467 44.8v-338.347c0-23.564-19.103-42.667-42.667-42.667v0zM871.253 551.253l-183.893 183.467c-13.227-14.933-29.013-28.16-47.36-39.253-35.84-21.333-79.787-34.133-128-34.133-72.533 0-136.96 29.013-175.36 73.387l-183.893-183.467 60.587-60.587 128 85.333h42.667v-426.667h256v426.667h42.667l128-85.333 60.587 60.587z" />
<glyph unicode="&#xe916;" glyph-name="inf_Produccion" d="M632.747 483.413c66.56-66.56 66.56-174.933 0-241.493s-174.933-66.56-241.493 0l241.493 241.493zM256 874.667h512c47.128 0 85.333-38.205 85.333-85.333v0-682.667c0-47.128-38.205-85.333-85.333-85.333v0h-512c-47.128 0-85.333 38.205-85.333 85.333v0 682.667c0 47.128 38.205 85.333 85.333 85.333v0zM298.667 789.333c-23.564 0-42.667-19.103-42.667-42.667v0c0-23.564 19.103-42.667 42.667-42.667v0c23.564 0 42.667 19.103 42.667 42.667v0c0 23.564-19.103 42.667-42.667 42.667v0zM426.667 789.333c-23.564 0-42.667-19.103-42.667-42.667v0c0-23.564 19.103-42.667 42.667-42.667v0c23.564 0 42.667 19.103 42.667 42.667v0c0 23.564-19.103 42.667-42.667 42.667v0zM512 618.667c-141.385 0-256-114.615-256-256v0c0-141.385 114.615-256 256-256v0c141.385 0 256 114.615 256 256v0c0 141.385-114.615 256-256 256v0z" />
<glyph unicode="&#xe917;" glyph-name="inf_ReposicionesGeneral" d="M768 170.667c35.413 0 64 28.587 64 64s-28.587 64-64 64c-35.413 0-64-28.587-64-64s28.587-64 64-64zM832 554.667h-106.667v-106.667h190.293l-83.627 106.667zM256 170.667c35.413 0 64 28.587 64 64s-28.587 64-64 64c-35.413 0-64-28.587-64-64s28.587-64 64-64zM853.333 618.667l128-170.667v-213.333h-85.333c0-70.827-57.173-128-128-128s-128 57.173-128 128h-256c0-70.827-57.173-128-128-128s-128 57.173-128 128h-85.333v469.333c0 47.36 37.973 85.333 85.333 85.333h597.333v-170.667h128zM128 704v-384h32.427c23.467 26.027 57.6 42.667 95.573 42.667s72.107-16.64 95.573-42.667h288.427v384h-512z" />
<glyph unicode="&#xe918;" glyph-name="inf_ReposicionesOffice" d="M510.72 111.787c-44.373-16.213-93.44 6.827-109.653 50.773-17.067 44.373 6.4 93.44 50.773 109.227 44.373 16.213 93.44-6.4 109.653-50.347 16.213-44.373-6.827-93.44-50.773-109.653zM422.4 352c-88.32-32-133.973-130.133-102.4-218.88 33.28-88.32 131.413-133.12 220.16-101.12 88.32 32 133.547 130.133 101.547 218.453-32.427 88.747-130.987 133.547-219.307 101.547zM680.107 764.587l-280.32-103.253 58.88-159.573 280.32 102.827zM866.987 378.88l-203.947-74.667c7.253-12.373 13.227-25.173 18.347-38.827s8.533-27.733 10.667-41.387l203.947 74.667zM833.707 593.92l-360.533-132.267 20.907-56.32c53.333-3.84 103.253-27.307 141.227-66.133l257.28 94.293zM85.333 874.667v-85.333h131.84l152.32-416c11.947 7.68 24.747 13.653 38.4 18.773s27.733 8.533 41.387 10.667l-171.947 471.893z" />
<glyph unicode="&#xe919;" glyph-name="inf_RutasExpedicion" d="M469.333 533.333h-256l-85.333 85.333 85.333 85.333h256v128l42.667 42.667 42.667-42.667v-42.667h256l85.333-85.333-85.333-85.333h-256v-85.333h256l85.333-85.333-85.333-85.333h-256v-256c47.128 0 85.333-38.205 85.333-85.333v0h-256c0 47.128 38.205 85.333 85.333 85.333v0 426.667z" />
<glyph unicode="&#xe91a;" glyph-name="inf_RRHH" d="M557.653 515.84c24.916 34.462 39.853 77.567 39.853 124.16s-14.937 89.698-40.284 124.787l0.431-0.627c22.824 15.761 51.083 25.176 81.541 25.176 0.283 0 0.566-0.001 0.849-0.002h-0.043c82.475 0 149.333-66.859 149.333-149.333s-66.859-149.333-149.333-149.333v0c-0.239-0.001-0.522-0.002-0.805-0.002-30.458 0-58.717 9.414-82.027 25.492l0.485-0.316zM234.667 640c0 82.475 66.859 149.333 149.333 149.333s149.333-66.859 149.333-149.333c0-82.475-66.859-149.333-149.333-149.333v0c-82.475 0-149.333 66.859-149.333 149.333v0zM320 640c0-35.346 28.654-64 64-64s64 28.654 64 64c0 35.346-28.654 64-64 64v0c-35.346 0-64-28.654-64-64v0zM682.667 234.667v-85.333h-597.333v85.333s0 170.667 298.667 170.667 298.667-170.667 298.667-170.667zM597.333 234.667c-5.973 33.28-56.747 85.333-213.333 85.333s-210.347-55.893-213.333-85.333zM680.533 405.333c51.355-40.213 84.786-101.281 87.454-170.241l0.013-0.426v-85.333h170.667v85.333s0 154.88-258.56 170.667z" />
<glyph unicode="&#xe91b;" glyph-name="EliminarFiltros" d="M629.76 71.253l121.173 120.747-121.173 120.747 60.16 60.16 120.747-119.893 120.747 119.893 60.16-60.16-119.893-120.747 119.893-120.747-60.16-60.16-120.747 121.173-120.747-121.173-60.16 60.16zM512 448v-336.213c1.707-12.8-2.56-26.453-12.373-35.413-16.64-16.64-43.52-16.64-60.16 0l-85.76 85.76c-9.813 9.813-14.080 23.040-12.373 35.413v250.453h-1.28l-245.76 314.88c-14.507 18.347-11.093 45.227 7.253 59.733 8.107 5.973 17.067 9.387 26.453 9.387v0h597.333c9.387 0 18.347-3.413 26.453-9.387 18.347-14.507 21.76-41.387 7.253-59.733l-245.76-314.88h-1.28z" />
<glyph unicode="&#xe91c;" glyph-name="Impresora" d="M768 832h-512v-170.667h512zM810.667 448c-23.564 0-42.667 19.103-42.667 42.667v0c0 23.564 19.103 42.667 42.667 42.667v0c23.564 0 42.667-19.103 42.667-42.667v0c0-23.564-19.103-42.667-42.667-42.667v0zM682.667 149.333h-341.333v213.333h341.333zM810.667 618.667h-597.333c-70.692 0-128-57.308-128-128v0-256h170.667v-170.667h512v170.667h170.667v256c0 70.692-57.308 128-128 128v0z" />
<glyph unicode="&#xe91d;" glyph-name="Euro" d="M301.653 490.667l-2.987-42.667 2.987-42.667h438.613l-36.267-85.333h-376.747c48.213-100.693 151.040-170.667 270.080-170.667 95.147 0 180.053 44.373 234.667 113.92v-119.040c-64-50.347-146.347-80.213-234.667-80.213-167.253 0-309.333 106.667-362.667 256h-149.333l42.667 85.333h87.467l-2.133 42.667 2.133 42.667h-130.133l42.667 85.333h106.667c53.333 149.333 195.413 256 362.667 256 106.667 0 204.8-44.373 274.347-115.627l-36.693-87.040c-54.613 71.253-140.8 117.333-237.653 117.333-119.040 0-221.867-69.973-270.080-170.667h485.12l-36.267-85.333h-474.453z" />
<glyph unicode="&#xe91e;" glyph-name="Grafica" d="M128 21.333v597.333h170.667v-597.333h-170.667zM426.667 21.333v853.333h170.667v-853.333h-170.667zM725.333 21.333v341.333h170.667v-341.333h-170.667z" />
<glyph unicode="&#xe91f;" glyph-name="Herramientas" d="M926.293 94.293l-60.587-60.587c-7.712-7.668-18.343-12.407-30.080-12.407s-22.368 4.74-30.082 12.409l0.002-0.002-506.88 506.027c-12.725-3.83-27.376-6.151-42.531-6.398l-0.136-0.002c-94.204 0.069-170.545 76.453-170.545 170.667 0 19.863 3.393 38.933 9.631 56.662l-0.367-1.196 108.373-108.373 105.813 105.813-108.373 108.373c16.534 5.872 35.604 9.265 55.467 9.265 94.214 0 170.597-76.341 170.667-170.538v-0.007c-0.249-15.291-2.57-29.942-6.693-43.817l0.293 1.15 506.027-506.88c7.668-7.712 12.407-18.343 12.407-30.080s-4.74-22.368-12.409-30.082l0.002 0.002zM97.707 154.453c-7.668-7.712-12.407-18.343-12.407-30.080s4.74-22.368 12.409-30.082l60.585-60.585c7.712-7.668 18.343-12.407 30.080-12.407s22.368 4.74 30.082 12.409l-0.002-0.002 233.387 232.96-120.747 120.747zM853.333 874.667l-170.667-85.333v-85.333l-92.587-92.587 85.333-85.333 92.587 92.587h85.333l85.333 170.667z" />
<glyph unicode="&#xe920;" glyph-name="Cuaderno" d="M810.667 832h-178.347c-24.32 66.56-97.707 100.693-162.987 76.8-36.693-12.8-64-40.96-77.653-76.8h-178.347c-47.128 0-85.333-38.205-85.333-85.333v0-597.333c0-47.128 38.205-85.333 85.333-85.333v0h597.333c47.128 0 85.333 38.205 85.333 85.333v0 597.333c0 47.128-38.205 85.333-85.333 85.333v0zM512 832c23.564 0 42.667-19.103 42.667-42.667v0c0-23.564-19.103-42.667-42.667-42.667v0c-23.564 0-42.667 19.103-42.667 42.667v0c0 23.564 19.103 42.667 42.667 42.667v0zM298.667 661.333h426.667v85.333h85.333v-597.333h-597.333v597.333h85.333v-85.333zM725.333 490.667h-426.667v85.333h426.667v-85.333zM640 320h-341.333v85.333h341.333v-85.333z" />
<glyph unicode="&#xe921;" glyph-name="Carro" d="M510.72 111.787c-44.373-16.213-93.44 6.827-109.653 50.773-17.067 44.373 6.4 93.44 50.773 109.227 44.373 16.213 93.44-6.4 109.653-50.347 16.213-44.373-6.827-93.44-50.773-109.653zM422.4 352c-88.32-32-133.973-130.133-102.4-218.88 33.28-88.32 131.413-133.12 220.16-101.12 88.32 32 133.547 130.133 101.547 218.453-32.427 88.747-130.987 133.547-219.307 101.547zM680.107 764.587l-280.32-103.253 58.88-159.573 280.32 102.827zM866.987 378.88l-203.947-74.667c7.253-12.373 13.227-25.173 18.347-38.827s8.533-27.733 10.667-41.387l203.947 74.667zM833.707 593.92l-360.533-132.267 20.907-56.32c53.333-3.84 103.253-27.307 141.227-66.133l257.28 94.293zM85.333 874.667v-85.333h131.84l152.32-416c11.947 7.68 24.747 13.653 38.4 18.773s27.733 8.533 41.387 10.667l-171.947 471.893z" />
<glyph unicode="&#xe922;" glyph-name="Circle_check" d="M512 874.667c-234.667 0-426.667-192-426.667-426.667s192-426.667 426.667-426.667 426.667 192 426.667 426.667-192 426.667-426.667 426.667zM512 106.667c-188.16 0-341.333 153.173-341.333 341.333s153.173 341.333 341.333 341.333 341.333-153.173 341.333-341.333-153.173-341.333-341.333-341.333zM707.84 636.587l-281.173-281.173-110.507 110.080-60.16-60.16 170.667-170.667 341.333 341.333-60.16 60.587z" />
<glyph unicode="&#xe923;" glyph-name="Circle_uncheck" d="M512 106.667c-188.513 0-341.333 152.82-341.333 341.333v0c0 188.513 152.82 341.333 341.333 341.333v0c188.513 0 341.333-152.82 341.333-341.333v0c0-188.513-152.82-341.333-341.333-341.333v0zM512 874.667c-235.641 0-426.667-191.025-426.667-426.667v0c0-235.641 191.025-426.667 426.667-426.667v0c235.641 0 426.667 191.025 426.667 426.667v0c0 235.641-191.025 426.667-426.667 426.667v0z" />
<glyph unicode="&#xe924;" glyph-name="Vehiculos1" d="M848.64 432.213l-69.973 314.453h32v85.333h-682.667v-170.667h-85.333v-85.333h85.333v-151.040c-52.348-46.967-85.176-114.781-85.333-190.265v-85.361h85.333c0-70.692 57.308-128 128-128s128 57.308 128 128v0h256c0-70.692 57.308-128 128-128s128 57.308 128 128v0h85.333v85.333c0 0.012 0 0.027 0 0.041 0 88.745-54.189 164.834-131.283 196.984l-1.41 0.521zM256 85.333c-35.346 0-64 28.654-64 64s28.654 64 64 64c35.346 0 64-28.654 64-64v0c0-35.346-28.654-64-64-64v0zM662.613 448l-49.067 73.387 60.587 40.533-46.933 70.827-192-128 46.933-70.827 61.013 40.533 49.067-74.24-37.547-37.547h-119.467l-221.867 298.667v85.333h477.867l66.133-298.667zM768 85.333c-35.346 0-64 28.654-64 64s28.654 64 64 64c35.346 0 64-28.654 64-64v0c0-35.346-28.654-64-64-64v0z" />
<glyph unicode="&#xe925;" glyph-name="Vehiculos2" d="M682.667 704l128-170.667h85.333c47.36 0 85.333-37.973 85.333-85.333v-128h-85.333c0-70.692-57.308-128-128-128v0c-70.692 0-128 57.308-128 128v0h-256c0-70.692-57.308-128-128-128v0c-70.692 0-128 57.308-128 128v0h-85.333v128c0 47.36 37.973 85.333 85.333 85.333l128 170.667h426.667zM448 640h-160l-80.64-106.667h240.64v106.667zM512 640v-106.667h219.307l-80.64 106.667h-138.667zM256 384c-35.346 0-64-28.654-64-64v0c0-35.346 28.654-64 64-64v0c35.346 0 64 28.654 64 64v0c0 35.346-28.654 64-64 64v0zM768 384c-35.346 0-64-28.654-64-64v0c0-35.346 28.654-64 64-64v0c35.346 0 64 28.654 64 64v0c0 35.346-28.654 64-64 64v0z" />
<glyph unicode="&#xe926;" glyph-name="Vehiculos3" d="M128 661.333c-47.36 0-85.333-37.973-85.333-85.333v-341.333h85.333c0-70.692 57.308-128 128-128v0c70.692 0 128 57.308 128 128v0h256c0-70.692 57.308-128 128-128v0c70.692 0 128 57.308 128 128v0h85.333v170.667c0 47.36-37.973 85.333-85.333 85.333l-128 170.667h-640zM640 597.333h106.667l83.627-106.667h-190.293v106.667zM256 298.667c35.346 0 64-28.654 64-64v0c0-35.346-28.654-64-64-64v0c-35.346 0-64 28.654-64 64v0c0 35.346 28.654 64 64 64v0zM768 298.667c35.346 0 64-28.654 64-64v0c0-35.346-28.654-64-64-64v0c-35.346 0-64 28.654-64 64v0c0 35.346 28.654 64 64 64v0z" />
<glyph unicode="&#xe927;" glyph-name="Vehiculos4" d="M768 170.667c-35.346 0-64 28.654-64 64v0c0 35.346 28.654 64 64 64v0c35.346 0 64-28.654 64-64v0c0-35.346-28.654-64-64-64v0zM832 554.667l83.627-106.667h-190.293v106.667zM256 170.667c-35.346 0-64 28.654-64 64v0c0 35.346 28.654 64 64 64v0c35.346 0 64-28.654 64-64v0c0-35.346-28.654-64-64-64v0zM853.333 618.667h-128v170.667h-597.333c-47.36 0-85.333-37.973-85.333-85.333v-469.333h85.333c0-70.692 57.308-128 128-128v0c70.692 0 128 57.308 128 128v0h256c0-70.692 57.308-128 128-128v0c70.692 0 128 57.308 128 128v0h85.333v213.333l-128 170.667z" />
<glyph unicode="&#xe928;" glyph-name="menu_GestionInterna" d="M874.667 405.333c58.91 0 106.667-47.756 106.667-106.667v0-21.333c23.564 0 42.667-19.103 42.667-42.667v0-170.667c0-23.564-19.103-42.667-42.667-42.667v0h-213.333c-23.564 0-42.667 19.103-42.667 42.667v0 170.667c0 23.564 19.103 42.667 42.667 42.667v0 21.333c0 58.91 47.756 106.667 106.667 106.667v0zM874.667 362.667c-35.346 0-64-28.654-64-64v0-21.333h128v21.333c0 35.346-28.654 64-64 64v0zM853.333 789.333h-768v-512h554.667v-85.333h-85.333v-85.333h85.333v-85.333h-341.333v85.333h85.333v85.333h-298.667c-47.36 0-85.333 38.4-85.333 85.333v512c0 47.36 37.973 85.333 85.333 85.333h768c47.128 0 85.333-38.205 85.333-85.333v0-321.28c-25.173 14.507-54.187 22.613-85.333 22.613v298.667z" />
<glyph unicode="&#xe929;" glyph-name="Cerrar" d="M810.667 686.507l-60.16 60.16-238.507-238.507-238.507 238.507-60.16-60.16 238.507-238.507-238.507-238.507 60.16-60.16 238.507 238.507 238.507-238.507 60.16 60.16-238.507 238.507 238.507 238.507z" />
<glyph unicode="&#xe92a;" glyph-name="ManoStop" d="M128 679.253v-515.84c0-78.080 64-142.080 142.080-142.080h259.84c38.4 0 74.667 15.36 101.12 42.667l279.040 283.307c0 0-44.8 43.947-46.080 44.373-7.68 6.827-17.493 10.667-28.16 10.667-7.68 0-14.933-2.133-21.333-5.973-1.28-0.427-153.173-87.467-153.173-87.467v423.68c0 29.455-23.878 53.333-53.333 53.333v0c-29.455 0-53.333-23.878-53.333-53.333v0-249.173h-35.413v337.92c0 29.455-23.878 53.333-53.333 53.333v0c-29.455 0-53.333-23.878-53.333-53.333v0-337.92h-35.84v302.507c0 29.455-23.878 53.333-53.333 53.333v0c-29.455 0-53.333-23.878-53.333-53.333v0-302.507h-35.413v195.84c0 29.455-23.878 53.333-53.333 53.333v0c-29.455 0-53.333-23.878-53.333-53.333v0z" />
<glyph unicode="&#xe92b;" glyph-name="Telefono" d="M640 448h85.333c0 117.821-95.513 213.333-213.333 213.333v0-85.333c70.692 0 128-57.308 128-128v0zM810.667 448h85.333c0 213.333-171.947 384-384 384v-85.333c164.693 0 298.667-133.547 298.667-298.667zM853.333 298.667c-53.333 0-104.533 8.533-152.32 24.32-14.933 4.693-31.573 1.28-43.52-10.667l-93.867-93.867c-120.747 61.44-219.733 160.427-281.173 281.173l93.867 93.867c11.947 11.947 15.36 28.587 10.667 43.52-15.787 47.787-24.32 98.987-24.32 152.32 0 23.564-19.103 42.667-42.667 42.667v0h-149.333c-23.564 0-42.667-19.103-42.667-42.667v0c0-400.591 324.743-725.333 725.333-725.333v0c23.564 0 42.667 19.103 42.667 42.667v0 149.333c0 23.564-19.103 42.667-42.667 42.667v0z" />
<glyph unicode="&#xe92c;" glyph-name="Lavadora" d="M632.747 483.413c66.56-66.56 66.56-174.933 0-241.493s-174.933-66.56-241.493 0l241.493 241.493zM256 874.667h512c47.128 0 85.333-38.205 85.333-85.333v0-682.667c0-47.128-38.205-85.333-85.333-85.333v0h-512c-47.128 0-85.333 38.205-85.333 85.333v0 682.667c0 47.128 38.205 85.333 85.333 85.333v0zM298.667 789.333c-23.564 0-42.667-19.103-42.667-42.667v0c0-23.564 19.103-42.667 42.667-42.667v0c23.564 0 42.667 19.103 42.667 42.667v0c0 23.564-19.103 42.667-42.667 42.667v0zM426.667 789.333c-23.564 0-42.667-19.103-42.667-42.667v0c0-23.564 19.103-42.667 42.667-42.667v0c23.564 0 42.667 19.103 42.667 42.667v0c0 23.564-19.103 42.667-42.667 42.667v0zM512 618.667c-141.385 0-256-114.615-256-256v0c0-141.385 114.615-256 256-256v0c141.385 0 256 114.615 256 256v0c0 141.385-114.615 256-256 256v0z" />
<glyph unicode="&#xe92d;" glyph-name="AbrirMenu" d="M896 293.973l-60.16-59.307-213.76 213.333 213.76 213.333 60.16-59.307-151.893-154.027 151.893-154.027zM128 704h554.667v-85.333h-554.667v85.333zM128 405.333v85.333h426.667v-85.333h-426.667zM128 192v85.333h554.667v-85.333h-554.667z" />
<glyph unicode="&#xe92e;" glyph-name="Persona" d="M512 789.333c94.257 0 170.667-76.41 170.667-170.667v0c0-94.257-76.41-170.667-170.667-170.667v0c-94.257 0-170.667 76.41-170.667 170.667v0c0 94.257 76.41 170.667 170.667 170.667v0zM512 362.667c188.587 0 341.333-76.373 341.333-170.667v-85.333h-682.667v85.333c0 94.293 152.747 170.667 341.333 170.667z" />
<glyph unicode="&#xe92f;" glyph-name="Almacen" d="M256 149.333h85.333v-85.333h-85.333v85.333zM512 832l-426.667-213.333v-554.667h85.333v341.333h682.667v-341.333h85.333v554.667l-426.667 213.333zM341.333 490.667h-170.667v85.333h170.667v-85.333zM597.333 490.667h-170.667v85.333h170.667v-85.333zM853.333 490.667h-170.667v85.333h170.667v-85.333zM256 320h85.333v-85.333h-85.333v85.333zM426.667 320h85.333v-85.333h-85.333v85.333zM426.667 149.333h85.333v-85.333h-85.333v85.333zM597.333 149.333h85.333v-85.333h-85.333v85.333z" />
<glyph unicode="&#xe930;" glyph-name="Entidad" d="M0 64v469.333l320 213.333 320-213.333v-469.333h-213.333v298.667h-213.333v-298.667h-213.333zM1024 874.667v-810.667h-298.667v514.987l-42.667 28.16v96.853h-85.333v-39.68l-170.667 113.493v96.853h597.333zM896 362.667h-85.333v-85.333h85.333v85.333zM896 533.333h-85.333v-85.333h85.333v85.333zM896 704h-85.333v-85.333h85.333v85.333z" />
<glyph unicode="&#xe931;" glyph-name="menu_Account" d="M85.333 234.667v-128h341.333v80.64h-260.267v47.36c0 27.307 133.547 89.6 260.267 89.6 40.96-0.427 81.493-5.973 120.747-16.213l64.853 64.853c-59.733 20.053-121.6 31.147-185.6 32.427-113.92 0-341.333-56.747-341.333-170.667zM426.667 789.333c-94.293 0-170.667-76.373-170.667-170.667s76.373-170.667 170.667-170.667 170.667 76.373 170.667 170.667-76.373 170.667-170.667 170.667zM426.667 533.333c-46.933 0-85.333 37.973-85.333 85.333s38.4 85.333 85.333 85.333 85.333-38.4 85.333-85.333-37.973-85.333-85.333-85.333zM925.867 390.4l-42.667-42.667-87.467 85.333 42.667 42.667c8.96 8.96 23.893 8.96 32.853 0l54.613-54.613c8.96-8.96 8.96-23.893 0-32.853zM512 151.893l258.56 258.56 87.467-85.333-256-258.987h-90.027v85.76z" />
<glyph unicode="&#xe932;" glyph-name="menu_Logout" d="M706.56 727.893l-61.867-61.867c73.813-44.8 123.307-125.44 123.307-218.027 0-141.385-114.615-256-256-256v0c-141.385 0-256 114.615-256 256v0c0 92.587 49.493 173.227 122.88 218.453l-61.44 61.44c-88.747-61.44-146.773-163.84-146.773-279.893 0-188.513 152.82-341.333 341.333-341.333v0c188.513 0 341.333 152.82 341.333 341.333v0c0 116.053-58.027 218.453-146.773 279.893zM554.667 832h-85.333v-426.667h85.333z" />
<glyph unicode="&#xe933;" glyph-name="menu_ThreeDots" d="M512 660.001c-58.538 0-106 47.461-106 106v0c0 58.538 47.461 106 106 106v0c58.538 0 106-47.461 106-106v0c0-58.538-47.461-106-106-106v0zM512 342c-58.538 0-106 47.461-106 106v0c0 58.538 47.461 106 106 106v0c58.538 0 106-47.461 106-106v0c0-58.538-47.461-106-106-106v0zM512 24.001c-58.538 0-106 47.461-106 106v0c0 58.538 47.461 106 106 106v0c58.538 0 106-47.461 106-106v0c0-58.538-47.461-106-106-106v0z" />
<glyph unicode="&#xe934;" glyph-name="Box" d="M85.333 492.373c-21.333 11.947-27.733 37.973-15.787 58.453l64 110.507c4.693 8.533 11.947 14.507 20.053 17.92l334.080 187.733c6.827 5.12 15.36 7.68 24.32 7.68s17.493-2.56 24.32-7.68l337.067-189.44c8.107-4.267 14.933-11.093 18.773-19.627l61.867-107.52c11.947-20.48 4.693-46.507-15.36-58.027l-42.667-24.747v-211.627c0-16.213-8.96-30.293-22.613-37.547l-337.067-189.44c-6.827-5.12-15.36-7.68-24.32-7.68s-17.493 2.56-24.32 7.68l-337.067 189.44c-13.653 7.253-22.613 21.333-22.613 37.547v236.373c-12.8-7.253-29.013-7.68-42.667 0zM512 782.933v0-285.867l254.293 142.933-254.293 142.933zM213.333 281.173l256-144.213v286.293l-256 143.787v-285.867zM810.667 281.173v137.387l-213.333-123.733c-14.080-7.68-29.867-7.253-42.667-0.427v-157.44l256 144.213zM590.933 389.973l267.947 154.88-24.747 43.093-267.947-154.88 24.747-43.093z" />
<glyph unicode="&#xe935;" glyph-name="FinContador" d="M538.88 874.667c235.947 0 427.093-192 427.093-426.667s-191.147-426.667-427.093-426.667c-149.76 0-280.747 77.653-357.12 194.987l67.413 53.333c60.16-97.707 167.253-162.987 290.133-162.987 188.513 0 341.333 152.82 341.333 341.333v0c0 188.513-152.82 341.333-341.333 341.333v0c-174.080 0-317.44-130.56-338.347-298.667h117.76l-159.573-159.147-159.147 159.147h114.773c21.333 215.467 203.093 384 424.107 384zM665.173 523.093c21.333-0.427 38.827-17.493 38.827-39.253v-196.693c0-21.333-17.493-39.253-39.253-39.253h-235.947c-21.76 0-39.253 17.92-39.253 39.253v196.693c0 21.76 17.493 38.827 38.827 39.253v43.093c0 65.28 53.333 118.187 118.187 118.187 65.28 0 118.613-52.907 118.613-118.187v-43.093zM546.56 624.64c-32 0-58.453-26.027-58.453-58.453v-43.093h117.333v43.093c0 32.427-26.453 58.453-58.88 58.453z" />
<glyph unicode="&#xe936;" glyph-name="menu_Finanzas" d="M301.653 490.667l-2.987-42.667 2.987-42.667h438.613l-36.267-85.333h-376.747c48.213-100.693 151.040-170.667 270.080-170.667 95.147 0 180.053 44.373 234.667 113.92v-119.040c-64-50.347-146.347-80.213-234.667-80.213-167.253 0-309.333 106.667-362.667 256h-149.333l42.667 85.333h87.467l-2.133 42.667 2.133 42.667h-130.133l42.667 85.333h106.667c53.333 149.333 195.413 256 362.667 256 106.667 0 204.8-44.373 274.347-115.627l-36.693-87.040c-54.613 71.253-140.8 117.333-237.653 117.333-119.040 0-221.867-69.973-270.080-170.667h485.12l-36.267-85.333h-474.453z" />
<glyph unicode="&#xe937;" glyph-name="Gauge" d="M512 874.667c-235.641 0-426.667-191.025-426.667-426.667v0c0-235.641 191.025-426.667 426.667-426.667v0c235.641 0 426.667 191.025 426.667 426.667v0c0 235.641-191.025 426.667-426.667 426.667v0zM512 789.333c188.513 0 341.333-152.82 341.333-341.333v0c0-102.4-42.667-192-115.2-256-59.733 55.467-140.8 85.333-226.133 85.333s-162.133-29.867-226.133-85.333c-72.533 64-115.2 153.6-115.2 256 0 188.513 152.82 341.333 341.333 341.333v0zM597.333 708.693c-16.213-0.427-31.573-11.093-38.4-27.733l-55.040-137.813-4.267-9.813c-30.293-5.547-55.467-25.6-66.987-53.76-17.493-43.947 3.84-93.44 47.787-110.933s93.44 3.84 110.933 47.787c11.093 28.16 5.973 60.587-12.373 84.48l4.267 11.093 55.040 136.96 0.427 1.28c8.533 21.76-2.133 46.507-23.893 55.467-5.547 2.133-11.093 2.987-17.493 2.987zM426.667 704c-23.564 0-42.667-19.103-42.667-42.667v0c0-23.564 19.103-42.667 42.667-42.667v0c23.564 0 42.667 19.103 42.667 42.667v0c0 23.564-19.103 42.667-42.667 42.667v0zM298.667 576c-23.564 0-42.667-19.103-42.667-42.667v0c0-23.564 19.103-42.667 42.667-42.667v0c23.564 0 42.667 19.103 42.667 42.667v0c0 23.564-19.103 42.667-42.667 42.667v0zM725.333 576c-23.564 0-42.667-19.103-42.667-42.667v0c0-23.564 19.103-42.667 42.667-42.667v0c23.564 0 42.667 19.103 42.667 42.667v0c0 23.564-19.103 42.667-42.667 42.667v0z" />
<glyph unicode="&#xe938;" glyph-name="CaraContenta" d="M528 32v0c-220.914 0-400 179.086-400 400s179.086 400 400 400c220.914 0 400-179.086 400-400s-179.086-400-400-400zM528 64c203.241 0 368 164.759 368 368s-164.759 368-368 368c-203.241 0-368-164.759-368-368s164.759-368 368-368v0zM384 512v0c-17.673 0-32 14.327-32 32s14.327 32 32 32c17.673 0 32-14.327 32-32s-14.327-32-32-32zM672 512v0c-17.673 0-32 14.327-32 32s14.327 32 32 32c17.673 0 32-14.327 32-32s-14.327-32-32-32zM527.402 256v0c111.402 0 176.598 64 176.598 64v-32c0 0-65.195-64-176.598-64s-175.402 64-175.402 64v32c0 0 64-64 175.402-64z" />
<glyph unicode="&#xe939;" glyph-name="CaraEnfadada" d="M528 32v0c-220.914 0-400 179.086-400 400s179.086 400 400 400c220.914 0 400-179.086 400-400s-179.086-400-400-400zM528 64c203.241 0 368 164.759 368 368s-164.759 368-368 368c-203.241 0-368-164.759-368-368s164.759-368 368-368v0zM384 288h288v-32h-288v32zM371.889 641.053l106.117-71.577-17.894-26.529-106.117 71.577 17.894 26.529zM577.995 569.476l106.117 71.577 17.894-26.529-106.117-71.577-17.894 26.529zM384 480v0c-17.673 0-32 14.327-32 32s14.327 32 32 32c17.673 0 32-14.327 32-32s-14.327-32-32-32zM672 480v0c-17.673 0-32 14.327-32 32s14.327 32 32 32c17.673 0 32-14.327 32-32s-14.327-32-32-32z" />
<glyph unicode="&#xe93a;" glyph-name="CaraNeutral" d="M528 32v0c-220.914 0-400 179.086-400 400s179.086 400 400 400c220.914 0 400-179.086 400-400s-179.086-400-400-400zM528 64c203.241 0 368 164.759 368 368s-164.759 368-368 368c-203.241 0-368-164.759-368-368s164.759-368 368-368v0zM384 512v0c-17.673 0-32 14.327-32 32s14.327 32 32 32c17.673 0 32-14.327 32-32s-14.327-32-32-32zM672 512v0c-17.673 0-32 14.327-32 32s14.327 32 32 32c17.673 0 32-14.327 32-32s-14.327-32-32-32zM384 288h288v-32h-288v32z" />
<glyph unicode="&#xe93b;" glyph-name="calendario_ayer" d="M810.667 832h-42.667v85.333h-85.333v-85.333h-341.333v85.333h-85.333v-85.333h-42.667c-47.36 0-85.333-37.973-85.333-85.333v-597.333c0-46.933 37.973-85.333 85.333-85.333h597.333c46.933 0 85.333 38.4 85.333 85.333v597.333c0 47.36-38.4 85.333-85.333 85.333zM810.667 149.333h-597.333v469.333h597.333v-469.333zM512 533.333v-85.333h170.667v-128h-170.667v-85.333l-170.667 149.333 170.667 149.333z" />
<glyph unicode="&#xe93c;" glyph-name="calendario_blanco" d="M810.667 149.333h-597.333v469.333h597.333zM682.667 917.333v-85.333h-341.333v85.333h-85.333v-85.333h-42.667c-47.36 0-85.333-37.973-85.333-85.333v-597.333c0-47.128 38.205-85.333 85.333-85.333v0h597.333c47.128 0 85.333 38.205 85.333 85.333v0 597.333c0 47.36-38.4 85.333-85.333 85.333h-42.667v85.333z" />
<glyph unicode="&#xe93d;" glyph-name="calendario_mes" d="M384 533.333v-85.333h-85.333v85.333h85.333zM554.667 533.333v-85.333h-85.333v85.333h85.333zM725.333 533.333v-85.333h-85.333v85.333h85.333zM810.667 832c47.128 0 85.333-38.205 85.333-85.333v0-597.333c0-47.128-38.205-85.333-85.333-85.333v0h-597.333c-47.36 0-85.333 38.4-85.333 85.333v597.333c0 47.128 38.205 85.333 85.333 85.333v0h42.667v85.333h85.333v-85.333h341.333v85.333h85.333v-85.333h42.667zM810.667 149.333v469.333h-597.333v-469.333h597.333zM384 362.667v-85.333h-85.333v85.333h85.333zM554.667 362.667v-85.333h-85.333v85.333h85.333zM725.333 362.667v-85.333h-85.333v85.333h85.333z" />
<glyph unicode="&#xe93e;" glyph-name="arrow_down" d="M32.001 639.999l479.999-479.999 479.999 479.999h-960z" />
<glyph unicode="&#xe93f;" glyph-name="arrow_up" d="M32.001 160l479.999 479.999 479.999-479.999h-960z" />
<glyph unicode="&#xe940;" glyph-name="agua" d="M512 799.147l-32-35.84c0 0-54.613-61.867-109.653-142.080s-114.347-176.213-114.347-268.373c0-141.385 114.615-256 256-256v0c141.385 0 256 114.615 256 256v0c0 92.16-59.307 188.16-114.347 268.373s-109.653 142.080-109.653 142.080l-32 35.84zM512 665.6c18.773-22.187 35.84-40.533 71.68-92.587 51.627-75.093 98.987-170.667 98.987-220.16 0-94.72-75.947-170.667-170.667-170.667s-170.667 75.947-170.667 170.667c0 49.493 47.36 145.067 98.987 220.16 35.84 52.053 52.907 70.4 71.68 92.587z" />
<glyph unicode="&#xe941;" glyph-name="calefaccion" d="M748.8 482.133c-9.813 12.8-21.333 23.893-32.427 34.987-27.733 25.6-59.733 43.947-86.613 70.827-62.293 62.293-75.093 165.12-36.267 244.053-38.827-9.813-74.667-32-104.533-56.32-108.373-88.747-151.040-245.333-99.84-379.733 1.707-4.267 3.413-8.533 3.413-14.080 0-9.387-6.4-17.92-14.933-21.333-9.387-4.267-19.627-1.707-27.307 5.12-2.56 2.133-4.267 4.267-6.4 7.253-46.933 61.013-54.613 148.48-22.613 218.453-69.973-58.027-107.947-156.16-101.973-248.747 1.707-21.333 4.267-42.667 11.52-64 5.973-25.6 17.067-51.2 30.72-73.813 44.373-73.813 122.453-126.72 206.507-137.387 89.6-11.52 185.6 5.12 254.293 68.267 76.8 70.827 104.533 184.32 64 281.6l-5.547 11.093c-8.533 19.627-20.053 37.12-34.133 53.333l2.133 0.427zM616.533 213.333c-11.947-10.24-31.147-21.333-46.080-25.6-46.933-17.067-93.867 6.827-122.453 34.987 50.773 11.947 80.64 49.493 89.173 87.467 7.253 34.133-5.973 62.293-11.52 95.147-5.12 31.573-4.267 58.453 7.68 87.893 7.253-16.213 15.787-32.427 25.6-45.227 32.427-42.667 83.2-61.44 93.867-119.467 1.707-5.973 2.56-11.947 2.56-18.347 1.28-34.987-13.653-73.387-39.253-96.853h0.427z" />
<glyph unicode="&#xe942;" glyph-name="electricidad" d="M298.667 874.667h426.667l-149.333-298.667h149.333l-298.667-554.667v341.333h-128v512zM384 789.333v-341.333h128v-113.493l85.333 156.16h-160.427l150.187 298.667h-203.093z" />
<glyph unicode="&#xe943;" glyph-name="kg" d="M512 832c94.257 0 170.667-76.41 170.667-170.667v0c0-31.147-8.107-60.16-23.040-85.333h108.373c40.533 0 74.667-28.587 83.2-66.56 85.76-341.76 87.467-350.72 87.467-360.107 0-47.128-38.205-85.333-85.333-85.333v0h-682.667c-47.128 0-85.333 38.205-85.333 85.333v0c0 9.387 1.707 18.347 87.467 360.107 8.533 37.973 42.667 66.56 83.2 66.56h108.373c-14.933 25.173-23.040 54.187-23.040 85.333 0 94.257 76.41 170.667 170.667 170.667v0zM512 746.667c-47.128 0-85.333-38.205-85.333-85.333v0c0-47.128 38.205-85.333 85.333-85.333v0c47.128 0 85.333 38.205 85.333 85.333v0c0 47.128-38.205 85.333-85.333 85.333v0zM256 490.667v-341.333h85.333v106.667l42.667-42.667v-64h85.333v85.333l-85.333 85.333 85.333 85.333v85.333h-85.333v-64l-42.667-42.667v106.667h-85.333zM640 490.667c-47.36 0-85.333-37.973-85.333-85.333v-170.667c0-47.36 37.973-85.333 85.333-85.333h128v213.333h-85.333v-128h-42.667v170.667h128v85.333h-128z" />
<glyph unicode="&#xe944;" glyph-name="rechazo" d="M256 149.333c0-47.128 38.205-85.333 85.333-85.333v0h341.333c47.128 0 85.333 38.205 85.333 85.333v0 512h-512v-512zM341.333 576h341.333v-426.667h-341.333v426.667zM661.333 789.333l-42.667 42.667h-213.333l-42.667-42.667h-149.333v-85.333h597.333v85.333h-149.333z" />
<glyph unicode="&#xe945;" glyph-name="rendimiento" d="M512 789.333c94.257 0 170.667-76.41 170.667-170.667v0c0-94.257-76.41-170.667-170.667-170.667v0c-94.257 0-170.667 76.41-170.667 170.667v0c0 94.257 76.41 170.667 170.667 170.667v0zM512 704c-47.128 0-85.333-38.205-85.333-85.333v0c0-47.128 38.205-85.333 85.333-85.333v0c47.128 0 85.333 38.205 85.333 85.333v0c0 47.128-38.205 85.333-85.333 85.333v0zM512 405.333c113.92 0 341.333-56.747 341.333-170.667v-128h-682.667v128c0 113.92 227.413 170.667 341.333 170.667zM512 324.267c-126.72 0-260.267-62.293-260.267-89.6v-46.933h520.533v46.933c0 27.307-133.547 89.6-260.267 89.6z" />
<glyph unicode="&#xe946;" glyph-name="timer" d="M512 106.667c-164.949 0-298.667 133.718-298.667 298.667v0c0 164.949 133.718 298.667 298.667 298.667v0c164.949 0 298.667-133.718 298.667-298.667v0c0-164.949-133.718-298.667-298.667-298.667v0zM811.947 644.693l60.587 60.587c-19.2 21.76-38.4 41.387-60.16 60.16l-60.587-61.44c-66.133 53.76-149.333 85.333-239.787 85.333-212.077 0-384-171.923-384-384v0c0-212.077 171.923-384 384-384v0c213.333 0 384 171.947 384 384 0 90.453-31.573 173.653-84.053 239.36zM469.333 362.667h85.333v256h-85.333zM640 917.333h-256v-85.333h256v85.333z" />
<glyph unicode="&#xe947;" glyph-name="LavadoraOff" d="M943.36 44.373l-841.387 841.813-54.613-54.187 123.307-123.307v-602.027c0-47.36 37.973-85.333 85.333-85.333h512c24.747 0 46.933 10.667 62.293 27.733l58.88-58.88 54.187 54.187zM512 106.667c-141.227 0-256 114.773-256 256 0 71.68 29.867 136.533 77.653 183.040l180.907-180.907-123.307-122.88c66.56-66.56 174.933-66.56 241.493 0 0.853 0.853 1.28 1.707 2.133 2.56l60.16-60.16c-46.507-47.787-110.933-77.653-183.040-77.653zM480 616.533c10.667 2.133 21.333 2.133 32 2.133 141.227 0 256-114.773 256-256 0-10.667 0-21.333-2.133-32l87.467-87.467v546.133c0 46.933-37.973 85.333-85.333 85.333h-512c-10.24 0-19.627-2.133-28.587-5.547l252.587-252.587zM426.667 789.333c23.467 0 42.667-19.2 42.667-42.667s-19.2-42.667-42.667-42.667-42.667 19.2-42.667 42.667 19.2 42.667 42.667 42.667z" />
<glyph unicode="&#xe948;" glyph-name="Comment" d="M384 21.333c-23.564 0-42.667 19.103-42.667 42.667v0 128h-170.667c-47.128 0-85.333 38.205-85.333 85.333v0 512c0 47.36 38.4 85.333 85.333 85.333h682.667c47.128 0 85.333-38.205 85.333-85.333v0-512c0-47.128-38.205-85.333-85.333-85.333v0h-260.267l-157.867-158.293c-8.533-8.107-19.2-12.373-29.867-12.373v0h-21.333zM426.667 277.333v-131.413l131.413 131.413h295.253v512h-682.667v-512h256zM554.667 533.333h-85.333v170.667h85.333v-170.667zM554.667 362.667h-85.333v85.333h85.333v-85.333z" />
<glyph unicode="&#xe949;" glyph-name="Grafica_Incremento" d="M256 256l-128-125.44v360.107h128zM469.333 334.507l-66.987 57.173-61.013-56.32v325.973h128zM682.667 405.333l-128-128v554.667h128zM802.56 413.44l-77.227 77.227h213.333v-213.333l-76.373 76.373-307.627-305.067-148.053 128.853-161.28-156.16h-117.333l276.053 270.507 150.613-127.147z" />
<glyph unicode="&#xe94a;" glyph-name="edit" d="M341.333 448h341.333v-85.333h-341.333v85.333zM426.667 106.667h-170.667v682.667h298.667v-213.333h213.333v-132.267l85.333 85.333v89.6l-256 256h-341.333c-47.128 0-85.333-38.205-85.333-85.333v0-682.667c0-47.128 38.205-85.333 85.333-85.333v0h170.667v85.333zM341.333 192h174.933l38.4 38.4v46.933h-213.333v-85.333zM861.867 405.333c4.267 0 12.8-4.267 17.067-8.533l55.467-55.467c8.533-8.533 8.533-25.6 0-34.133l-42.667-42.667-89.6 89.6 42.667 42.667c4.267 4.267 8.533 8.533 17.067 8.533zM861.867 238.933l-260.267-260.267h-89.6v89.6l260.267 260.267 89.6-89.6z" />
<glyph unicode="&#xe94b;" glyph-name="arrow-down" d="M384 789.333h256v-341.333h206.507l-334.507-334.507-334.507 334.507h206.507v341.333z" />
<glyph unicode="&#xe94c;" glyph-name="check" d="M896 661.333l-512-512-234.667 234.667 60.16 60.16 174.507-174.080 451.84 451.413 60.16-60.16z" />
<glyph unicode="&#xe94d;" glyph-name="Camisa" d="M921.6 652.8l-170.667 128c-7.381 5.547-16.341 8.533-25.6 8.533h-426.667c-9.259 0-18.219-2.987-25.6-8.533l-170.667-128c-18.091-13.611-22.485-38.955-9.899-57.813l85.333-128c11.904-17.92 35.328-24.064 54.571-14.507l23.595 11.776v-314.923c0-23.595 19.072-42.667 42.667-42.667h426.667c23.595 0 42.667 19.072 42.667 42.667v314.923l23.595-11.776c19.243-9.6 42.667-3.413 54.571 14.507l85.333 128c12.587 18.859 8.192 44.203-9.899 57.813zM512 661.333c-47.104 0-85.333 38.229-85.333 85.333h170.667c0-47.104-38.229-85.333-85.333-85.333z" />
<glyph unicode="&#xe94e;" glyph-name="Bac" d="M962 544v-416c0-53.032-43-96-96-96h-704c-53.016 0-96 42.968-96 96v416h896zM891.938 831.562c-16.626 20.75-39.126 32.438-62.626 32.438h-630.624c-23.484 0-46.016-11.688-62.626-32.438l-87.382-109.214c-9.502-11.878-14.68-26.636-14.68-41.846v-72.502c0-17.688 14.328-32 32-32h896c17.688 0 32 14.312 32 32v72.502c0 15.21-5.178 29.968-14.68 41.846l-87.382 109.214zM610 416h-192c-35.344 0-64-28.656-64-64s28.656-64 64-64h192c35.344 0 64 28.656 64 64s-28.656 64-64 64z" />
<glyph unicode="&#xe94f;" glyph-name="warning" d="M554.667 405.333h-85.333v256h85.333zM554.667 234.667h-85.333v85.333h85.333zM512 874.667c-235.641 0-426.667-191.025-426.667-426.667v0c0-235.641 191.025-426.667 426.667-426.667v0c235.641 0 426.667 191.025 426.667 426.667v0c0 235.641-191.025 426.667-426.667 426.667v0z" />
<glyph unicode="&#xe950;" glyph-name="manodeobra-1" d="M496 345.26c-151.367 0-273.963-61.303-273.963-136.987v-68.493h547.929v68.493c0 75.683-122.597 136.987-273.963 136.987zM359.013 550.74c0-75.657 61.33-136.987 136.987-136.987v0c75.657 0 136.987 61.33 136.987 136.987v0zM478.877 790.457c-10.27 0-17.123-7.19-17.123-17.123v-102.74h-34.247v85.617c0 0-77.050-29.453-77.050-128.42 0 0-25.681-4.793-25.681-42.803h342.457c-1.713 38.010-25.681 42.803-25.681 42.803 0 98.967-77.050 128.42-77.050 128.42v-85.617h-34.247v102.74c0 9.933-6.507 17.123-17.123 17.123h-34.247z" />
<glyph unicode="&#xe951;" glyph-name="recambios-1" d="M796.559 261.841l-242.011 242.011c23.934 61.173 10.643 132.967-39.888 183.498-53.191 53.191-132.967 63.83-196.801 34.567l114.356-114.356-79.776-79.776-117.013 114.356c-31.906-63.83-18.619-143.61 34.567-196.801 50.531-50.531 122.327-63.83 183.498-39.888l242.011-242.011c10.643-10.643 26.591-10.643 37.227 0l61.173 61.173c13.303 10.643 13.303 29.249 2.661 37.227z" />
<glyph unicode="&#xe952;" glyph-name="servicioextra-1" d="M496 789.333c-155.157 0-279.275-124.123-279.275-279.275v-217.211c0-51.412 41.676-93.088 93.088-93.088v0h93.088v248.245h-124.123v62.059c0 119.958 97.254 217.211 217.211 217.211v0c119.958 0 217.211-97.254 217.211-217.211v0-62.059h-124.123v-248.245h124.123v-31.035h-217.211v-62.059h186.176c51.412 0 93.088 41.676 93.088 93.088v0 310.299c0 155.157-125.051 279.275-279.275 279.275z" />
<glyph unicode="&#xe953;" glyph-name="bed" d="M810.667 661.333h-341.333v-298.667h-341.333v384h-85.333v-640h85.333v128h768v-128h85.333v384c0 94.257-76.41 170.667-170.667 170.667v0zM298.667 405.333c70.692 0 128 57.308 128 128v0c0 70.692-57.308 128-128 128v0c-70.692 0-128-57.308-128-128v0c0-70.692 57.308-128 128-128v0z" />
<glyph unicode="&#xe954;" glyph-name="help-circle-outline" d="M469.333 192h85.333v85.333h-85.333v-85.333zM512 874.667c-235.641 0-426.667-191.025-426.667-426.667v0c0-235.641 191.025-426.667 426.667-426.667v0c235.641 0 426.667 191.025 426.667 426.667v0c0 235.641-191.025 426.667-426.667 426.667v0zM512 106.667c-188.16 0-341.333 153.173-341.333 341.333s153.173 341.333 341.333 341.333c188.16 0 341.333-153.173 341.333-341.333s-153.173-341.333-341.333-341.333zM512 704c-94.257 0-170.667-76.41-170.667-170.667v0h85.333c0 47.128 38.205 85.333 85.333 85.333v0c47.128 0 85.333-38.205 85.333-85.333v0c0-85.333-128-74.667-128-213.333h85.333c0 96 128 106.667 128 213.333 0 94.257-76.41 170.667-170.667 170.667v0z" />
<glyph unicode="&#xe955;" glyph-name="smart-card-off-outline" d="M810.667 405.333h-119.467l-51.2 51.2v76.8h170.667v-128zM938.667 832h-674.133l85.333-85.333h588.8v-588.8l64-63.573c12.373 14.933 21.333 33.707 21.333 55.040v597.333c-1.707 46.507-38.827 83.627-85.333 85.333zM943.36 44.373l-54.187-54.187-73.813 73.813h-730.027c-46.464 1.707-83.797 38.827-85.333 85.333v597.333c1.195 35.413 23.253 65.28 54.187 78.507l-6.827 6.827 54.613 54.187 841.387-841.813zM730.027 149.333l-132.693 132.693v-47.36h-426.667v53.333c0 70.827 142.507 106.667 213.333 106.667 33.28 0 81.493-8.107 124.16-23.467l-85.333 85.333c-11.947-5.12-24.747-8.533-38.827-8.533-58.88 0-106.667 47.787-106.667 106.667 0 14.080 3.413 26.88 8.533 38.827l-153.173 153.173h-47.36v-597.333h644.693z" />
<glyph unicode="&#xe956;" glyph-name="cake" d="M490.667 938.667c21.333-10.667 64-81.067 64-128s-28.587-64-64-64c-35.413 0-64 6.4-64 53.333s42.667 74.667 64 138.667zM789.333 576c106.667 0 192-85.333 192-192 0-66.56-33.707-125.013-85.333-159.573v-245.76h-768v245.76c-51.627 34.56-85.333 93.013-85.333 159.573 0 106.667 85.333 192 192 192h192v128h128v-128h234.667zM512 277.333c58.91 0 106.667 47.756 106.667 106.667v0h64c0-58.91 47.756-106.667 106.667-106.667v0c58.91 0 106.667 47.756 106.667 106.667v0c0 58.91-47.756 106.667-106.667 106.667v0h-554.667c-58.91 0-106.667-47.756-106.667-106.667v0c0-58.91 47.756-106.667 106.667-106.667v0c58.91 0 106.667 47.756 106.667 106.667v0h64c0-58.91 47.756-106.667 106.667-106.667v0z" />
<glyph unicode="&#xe957;" glyph-name="gender-male-female-variant" d="M298.667 832c0-69.554 33.286-131.333 84.797-170.278l0.537-0.389c-52.048-39.334-85.333-101.113-85.333-170.667v0c0-0.013 0-0.028 0-0.044 0-102.717 72.595-188.479 169.277-208.779l1.389-0.244v-89.6h-85.333v-85.333h85.333v-85.333h85.333v85.333h85.333v85.333h-85.333v89.6c98.072 20.544 170.667 106.306 170.667 209.023 0 0.015 0 0.031 0 0.046v-0.002c0 69.554-33.286 131.333-84.797 170.278l-0.537 0.389c52.048 39.334 85.333 101.113 85.333 170.667v0h-85.333c0-70.692-57.308-128-128-128v0c-70.692 0-128 57.308-128 128v0zM512 618.667c70.692 0 128-57.308 128-128v0c0-70.692-57.308-128-128-128v0c-70.692 0-128 57.308-128 128v0c0 70.692 57.308 128 128 128v0z" />
<glyph unicode="&#xe958;" glyph-name="id-card" d="M170.667 789.333c-47.36 0-85.333-37.973-85.333-85.333v-512c0-47.36 37.973-85.333 85.333-85.333h682.667c47.36 0 85.333 37.973 85.333 85.333v512c0 47.36-37.973 85.333-85.333 85.333h-682.667zM170.667 704h682.667v-170.667h-682.667v170.667zM170.667 448h170.667v-85.333h-170.667v85.333zM426.667 448h426.667v-85.333h-426.667v85.333zM170.667 277.333h426.667v-85.333h-426.667v85.333zM682.667 277.333h170.667v-85.333h-170.667v85.333z" />
<glyph unicode="&#xe959;" glyph-name="credit-card-outline" d="M853.333 618.667h-682.667v85.333h682.667zM853.333 192h-682.667v256h682.667zM853.333 789.333h-682.667c-47.36 0-85.333-37.973-85.333-85.333v-512c0-47.128 38.205-85.333 85.333-85.333v0h682.667c47.128 0 85.333 38.205 85.333 85.333v0 512c0 47.36-38.4 85.333-85.333 85.333z" />
<glyph unicode="&#xe95a;" glyph-name="card-account-details-outline" d="M938.667 832h-853.333c-46.507-1.707-83.627-38.827-85.333-85.333v-597.333c1.707-46.507 38.827-83.627 85.333-85.333h853.333c46.507 1.707 83.627 38.827 85.333 85.333v597.333c-1.707 46.507-38.827 83.627-85.333 85.333zM938.667 149.333h-853.333v597.333h853.333v-597.333zM597.333 234.667v53.333c0 70.827-142.507 106.667-213.333 106.667s-213.333-35.84-213.333-106.667v-53.333h426.667zM384 661.333c-58.91 0-106.667-47.756-106.667-106.667v0c0-58.91 47.756-106.667 106.667-106.667v0c58.91 0 106.667 47.756 106.667 106.667v0c0 58.91-47.756 106.667-106.667 106.667v0zM597.333 661.333v-42.667h256v42.667h-256zM597.333 576v-42.667h256v42.667h-256zM597.333 490.667v-42.667h170.667v42.667h-170.667z" />
<glyph unicode="&#xe95b;" glyph-name="flag-variant-outline" d="M256 832c23.564 0 42.667-19.103 42.667-42.667v0-37.547c45.227 18.773 106.667 37.547 170.667 37.547 128 0 128-85.333 213.333-85.333 128 0 170.667 85.333 170.667 85.333v-341.333c0 0-42.667-85.333-170.667-85.333s-128 85.333-213.333 85.333c-128 0-170.667-85.333-170.667-85.333v-298.667h-85.333v725.333c0 23.564 19.103 42.667 42.667 42.667v0zM298.667 650.667v-181.333c0 0 85.333 64 170.667 64s128-85.333 213.333-85.333c85.333 0 85.333 42.667 85.333 42.667v149.333c0 0-42.667-21.333-85.333-21.333-85.333 0-128 85.333-213.333 85.333s-170.667-53.333-170.667-53.333z" />
<glyph unicode="&#xe95c;" glyph-name="map-outline" d="M874.667 832l-6.827-1.28-227.84-88.32-256 89.6-240.64-81.067c-8.96-2.987-15.36-10.667-15.36-20.48v-645.12c0-11.782 9.551-21.333 21.333-21.333v0l6.827 1.28 227.84 88.32 256-89.6 240.64 81.067c8.96 2.987 15.36 10.667 15.36 20.48v645.12c0 11.782-9.551 21.333-21.333 21.333v0zM426.667 726.613l170.667-59.733v-497.493l-170.667 59.733v497.493zM213.333 684.373l128 43.093v-499.2l-128-49.493v505.6zM810.667 211.627l-128-43.093v498.773l128 49.493v-505.173z" />
<glyph unicode="&#xe95d;" glyph-name="city-variant-outline" d="M640-21.333h-85.333v85.333h85.333v-85.333zM810.667 64h-85.333v-85.333h85.333v85.333zM640 234.667h-85.333v-85.333h85.333v85.333zM298.667 64h-85.333v-85.333h85.333v85.333zM298.667 234.667h-85.333v-85.333h85.333v85.333zM810.667 234.667h-85.333v-85.333h85.333v85.333zM640 405.333h-85.333v-85.333h85.333v85.333zM810.667 405.333h-85.333v-85.333h85.333v85.333zM896 576c47.128 0 85.333-38.205 85.333-85.333v0-512h-85.333v512h-426.667v-512h-85.333v341.333h-256v-341.333h-85.333v341.333c0 47.128 38.205 85.333 85.333 85.333v0h256v85.333c0 47.128 38.205 85.333 85.333 85.333v0 85.333c0 47.128 38.205 85.333 85.333 85.333v0h85.333v170.667h85.333v-170.667h85.333c47.128 0 85.333-38.205 85.333-85.333v0-85.333zM810.667 576v85.333h-256v-85.333h256z" />
<glyph unicode="&#xe95e;" glyph-name="mailbox-open-outline" d="M597.333 490.667h256v-170.667h-85.333v85.333h-170.667v85.333zM768 789.333h-426.667c-117.821 0-213.333-95.513-213.333-213.333v0-384h-85.333v-85.333h853.333c47.128 0 85.333 38.205 85.333 85.333v0 384c0 117.821-95.513 213.333-213.333 213.333v0zM469.333 192h-256v384c0 70.692 57.308 128 128 128v0c70.692 0 128-57.308 128-128v0-384zM896 192h-341.333v384c0 46.080-14.933 91.307-42.667 128h256c70.692 0 128-57.308 128-128v0-384z" />
<glyph unicode="&#xe95f;" glyph-name="numeric" d="M170.667 234.667v341.333h-85.333v85.333h170.667v-426.667h-85.333zM938.667 320c0-47.36-38.4-85.333-85.333-85.333h-170.667v85.333h170.667v85.333h-85.333v85.333h85.333v85.333h-170.667v85.333h170.667c47.128 0 85.333-38.205 85.333-85.333v0-64c0-35.346-28.654-64-64-64v0c35.346 0 64-28.654 64-64v0-64zM597.333 320v-85.333h-256v170.667c0 47.36 38.4 85.333 85.333 85.333h85.333v85.333h-170.667v85.333h170.667c47.128 0 85.333-38.205 85.333-85.333v0-85.333c0-47.36-38.4-85.333-85.333-85.333h-85.333v-85.333h170.667z" />
<glyph unicode="&#xe960;" glyph-name="email-outline" d="M938.667 704c0 46.933-38.4 85.333-85.333 85.333h-682.667c-46.933 0-85.333-38.4-85.333-85.333v-512c0-46.933 38.4-85.333 85.333-85.333h682.667c46.933 0 85.333 38.4 85.333 85.333v512zM853.333 704l-341.333-213.333-341.333 213.333h682.667zM853.333 192h-682.667v426.667l341.333-213.333 341.333 213.333v-426.667z" />
<glyph unicode="&#xe961;" glyph-name="account-details-outline" d="M469.333 576c0-70.827-57.173-128-128-128s-128 57.173-128 128c0 70.827 57.173 128 128 128s128-57.173 128-128zM597.333 106.667h-512v85.333c0 94.293 114.773 170.667 256 170.667s256-76.373 256-170.667zM298.667 576c0-23.467 19.2-42.667 42.667-42.667s42.667 19.2 42.667 42.667c0 23.467-19.2 42.667-42.667 42.667s-42.667-19.2-42.667-42.667zM170.667 192h341.333c0 46.933-76.373 85.333-170.667 85.333s-170.667-38.4-170.667-85.333zM938.667 448v-85.333h-384v85.333zM938.667 618.667v-85.333h-384v85.333zM938.667 789.333v-85.333h-384v85.333z" />
<glyph unicode="&#xe962;" glyph-name="format-list-numbered" d="M298.667 405.333v85.333h597.333v-85.333h-597.333zM298.667 149.333v85.333h597.333v-85.333h-597.333zM298.667 661.333v85.333h597.333v-85.333h-597.333zM128 618.667v128h-42.667v42.667h85.333v-170.667h-42.667zM85.333 234.667v42.667h128v-170.667h-128v42.667h85.333v21.333h-42.667v42.667h42.667v21.333h-85.333zM181.333 533.333c17.673 0 32-14.327 32-32v0c0-8.533-3.413-16.64-8.96-22.187l-71.253-73.813h80.213v-42.667h-128v39.253l85.333 88.747h-85.333v42.667h96z" />
<glyph unicode="&#xe963;" glyph-name="sort-calendar-descending" d="M810.667 661.333h-128l170.667 170.667 170.667-170.667h-128v-597.333h-85.333v597.333zM341.333 277.333h128v128h-128v-128zM554.667 746.667h-42.667v85.333h-85.333v-85.333h-170.667v85.333h-85.333v-85.333h-42.667c-47.36 0-85.333-37.973-85.333-85.333v-469.333c0-47.36 37.973-85.333 85.333-85.333h426.667c47.36 0 85.333 37.973 85.333 85.333v469.333c0 47.36-37.973 85.333-85.333 85.333zM128 192v298.667h426.667v-298.667h-426.667z" />
<glyph unicode="&#xe964;" glyph-name="sort-calendar-ascending" d="M896 234.667h128l-170.667-170.667-170.667 170.667h128v597.333h85.333v-597.333zM341.333 277.333h128v128h-128v-128zM554.667 746.667h-42.667v85.333h-85.333v-85.333h-170.667v85.333h-85.333v-85.333h-42.667c-47.36 0-85.333-37.973-85.333-85.333v-469.333c0-47.36 37.973-85.333 85.333-85.333h426.667c47.36 0 85.333 37.973 85.333 85.333v469.333c0 47.36-37.973 85.333-85.333 85.333zM128 192v298.667h426.667v-298.667h-426.667z" />
<glyph unicode="&#xe965;" glyph-name="badge-account-horizontal-outline" d="M341.333 576c47.128 0 85.333-38.205 85.333-85.333v0c0-47.128-38.205-85.333-85.333-85.333v0c-47.128 0-85.333 38.205-85.333 85.333v0c0 47.128 38.205 85.333 85.333 85.333v0zM512 234.667h-341.333v42.667c0 56.747 113.92 85.333 170.667 85.333s170.667-28.587 170.667-85.333v-42.667zM853.333 618.667h-256v-85.333h256v85.333zM853.333 448h-256v-85.333h256v85.333zM853.333 277.333h-256v-85.333h256v85.333zM938.667 789.333h-341.333v-85.333h341.333v-597.333h-853.333v597.333h341.333v85.333h-341.333c-47.128 0-85.333-38.205-85.333-85.333v0-597.333c0-47.128 38.205-85.333 85.333-85.333v0h853.333c47.128 0 85.333 38.205 85.333 85.333v0 597.333c0 47.128-38.205 85.333-85.333 85.333v0zM554.667 704h-85.333v170.667h85.333v-170.667z" />
<glyph unicode="&#xe966;" glyph-name="earth" d="M763.733 218.027c-11.093 34.133-43.093 59.307-81.067 59.307h-42.667v128c0 23.564-19.103 42.667-42.667 42.667v0h-256v85.333h85.333c23.564 0 42.667 19.103 42.667 42.667v0 85.333h85.333c47.128 0 85.333 38.205 85.333 85.333v0 17.493c125.013-50.347 213.333-172.8 213.333-316.16 0-88.747-34.133-169.387-89.6-229.973zM469.333 109.653c-168.533 20.907-298.667 164.267-298.667 338.347 0 26.453 3.413 52.053 8.96 76.373l204.373-204.373v-42.667c0-47.128 38.205-85.333 85.333-85.333v0zM512 874.667c-235.641 0-426.667-191.025-426.667-426.667v0c0-235.641 191.025-426.667 426.667-426.667v0c235.641 0 426.667 191.025 426.667 426.667v0c0 235.641-191.025 426.667-426.667 426.667v0z" />
<glyph unicode="&#xe967;" glyph-name="bell-circle-outline" d="M725.333 277.333h-426.667v42.667l42.667 42.667v111.36c0 46.507 11.52 87.467 33.707 122.027 21.76 34.56 53.333 56.32 94.293 65.28v21.333c0 23.564 19.103 42.667 42.667 42.667v0c23.564 0 42.667-19.103 42.667-42.667v0-21.333c40.96-8.96 72.533-30.72 94.293-65.28 22.187-34.56 33.707-75.52 33.707-122.027v-111.36l42.667-42.667v-42.667zM576 234.667c0-35.346-28.654-64-64-64v0c-35.346 0-64 28.654-64 64v0h128zM512 874.667c235.641 0 426.667-191.025 426.667-426.667v0c0-235.641-191.025-426.667-426.667-426.667v0c-235.641 0-426.667 191.025-426.667 426.667v0c0 235.641 191.025 426.667 426.667 426.667v0zM512 789.333c-188.513 0-341.333-152.82-341.333-341.333v0c0-188.513 152.82-341.333 341.333-341.333v0c188.513 0 341.333 152.82 341.333 341.333v0c0 188.513-152.82 341.333-341.333 341.333v0z" />
<glyph unicode="&#xe968;" glyph-name="alert-circle" d="M554.667 405.333h-85.333v256h85.333zM554.667 234.667h-85.333v85.333h85.333zM512 874.667c-235.641 0-426.667-191.025-426.667-426.667v0c0-235.641 191.025-426.667 426.667-426.667v0c235.641 0 426.667 191.025 426.667 426.667v0c0 235.641-191.025 426.667-426.667 426.667v0z" />
<glyph unicode="&#xe969;" glyph-name="account-check" d="M900.267 426.667l59.733-60.16-278.613-281.173-148.053 149.333 59.733 60.16 88.32-88.747 218.88 220.587zM426.667 234.667l128-128h-426.667v85.333c0 94.293 152.747 170.667 341.333 170.667l80.64-4.693-123.307-123.307zM469.333 789.333c94.257 0 170.667-76.41 170.667-170.667v0c0-94.257-76.41-170.667-170.667-170.667v0c-94.257 0-170.667 76.41-170.667 170.667v0c0 94.257 76.41 170.667 170.667 170.667v0z" />
<glyph unicode="&#xe96a;" glyph-name="account-cancel" d="M426.667 789.333c-94.257 0-170.667-76.41-170.667-170.667v0c0-94.257 76.41-170.667 170.667-170.667v0c94.257 0 170.667 76.41 170.667 170.667v0c0 94.257-76.41 170.667-170.667 170.667v0zM746.667 405.333c-106.667 0-192-85.333-192-192s85.333-192 192-192c106.667 0 192 85.333 192 192s-85.333 192-192 192zM426.667 362.667c-188.587 0-341.333-76.373-341.333-170.667v-85.333h405.333c-13.49 31.507-21.333 68.171-21.333 106.667v0c0.198 53.040 15.254 102.523 41.219 144.552l-0.686-1.192c-26.88 3.413-54.187 5.973-83.2 5.973zM746.667 341.333c70.827 0 128-57.173 128-128 0-23.893-6.4-46.080-17.92-64l-174.080 174.080c17.92 11.52 40.107 17.92 64 17.92zM636.587 277.333l174.080-174.080c-17.92-11.52-40.107-17.92-64-17.92-70.827 0-128 57.173-128 128 0 23.893 6.4 46.080 17.92 64z" />
<glyph unicode="&#xe96b;" glyph-name="book-account-outline" d="M768 874.667c47.128 0 85.333-38.205 85.333-85.333v0-682.667c0-47.128-38.205-85.333-85.333-85.333v0h-512c-47.128 0-85.333 38.205-85.333 85.333v0 682.667c0 47.128 38.205 85.333 85.333 85.333v0h512zM768 789.333h-213.333v-213.333l-106.667 98.133-106.667-98.133v213.333h-85.333v-682.667h512zM554.667 490.667c47.128 0 85.333-38.205 85.333-85.333s-38.205-85.333-85.333-85.333c-47.128 0-85.333 38.205-85.333 85.333v0c0 47.128 38.205 85.333 85.333 85.333v0zM725.333 149.333h-341.333v42.667c0 56.747 113.92 85.333 170.667 85.333s170.667-28.587 170.667-85.333v-42.667z" />
<glyph unicode="&#xe96c;" glyph-name="face-recognition" d="M384 458.667c-29.455 0-53.333-23.878-53.333-53.333v0c0-29.455 23.878-53.333 53.333-53.333v0c29.455 0 53.333 23.878 53.333 53.333v0c0 29.455-23.878 53.333-53.333 53.333v0zM640 458.667c-29.455 0-53.333-23.878-53.333-53.333v0c0-29.455 23.878-53.333 53.333-53.333v0c29.455 0 53.333 23.878 53.333 53.333v0c0 29.455-23.878 53.333-53.333 53.333v0zM512 874.667c-235.641 0-426.667-191.025-426.667-426.667v0c0-235.641 191.025-426.667 426.667-426.667v0c235.641 0 426.667 191.025 426.667 426.667v0c0 235.641-191.025 426.667-426.667 426.667v0zM512 106.667c-188.513 0-341.333 152.82-341.333 341.333v0c-1.28 12.373-1.28 24.32 0 36.693 101.547 44.373 182.187 126.72 224.427 229.12 79.787-113.067 209.493-180.48 348.16-180.48 32.427 0 64.427 3.84 96 11.093 53.333-181.76-49.92-370.773-230.827-423.68-32.427-9.387-64-14.080-96.427-14.080zM0 874.667c0 47.128 38.205 85.333 85.333 85.333v0h170.667v-85.333h-170.667v-170.667h-85.333v170.667zM1024 21.333c0-47.128-38.205-85.333-85.333-85.333v0h-170.667v85.333h170.667v170.667h85.333v-170.667zM85.333-64c-47.128 0-85.333 38.205-85.333 85.333v0 170.667h85.333v-170.667h170.667v-85.333h-170.667zM938.667 960c47.128 0 85.333-38.205 85.333-85.333v0-170.667h-85.333v170.667h-170.667v85.333h170.667z" />
<glyph unicode="&#xe96d;" glyph-name="office-building" d="M213.333 832v-768h256v149.333h85.333v-149.333h256v768h-597.333zM298.667 746.667h85.333v-85.333h-85.333v85.333zM469.333 746.667h85.333v-85.333h-85.333v85.333zM640 746.667h85.333v-85.333h-85.333v85.333zM298.667 576h85.333v-85.333h-85.333v85.333zM469.333 576h85.333v-85.333h-85.333v85.333zM640 576h85.333v-85.333h-85.333v85.333zM298.667 405.333h85.333v-85.333h-85.333v85.333zM469.333 405.333h85.333v-85.333h-85.333v85.333zM640 405.333h85.333v-85.333h-85.333v85.333zM298.667 234.667h85.333v-85.333h-85.333v85.333zM640 234.667h85.333v-85.333h-85.333v85.333z" />
<glyph unicode="&#xe96e;" glyph-name="door" d="M341.333 832c-47.36 0-85.333-37.973-85.333-85.333v-682.667h512v682.667c0 47.36-37.973 85.333-85.333 85.333h-341.333zM341.333 746.667h341.333v-597.333h-341.333v597.333zM554.667 490.667v-85.333h85.333v85.333h-85.333z" />
<glyph unicode="&#xe96f;" glyph-name="account-child-outline" d="M512 234.667c-46.933 0-85.333 38.4-85.333 85.333s38.4 85.333 85.333 85.333c46.933 0 85.333-38.4 85.333-85.333s-38.4-85.333-85.333-85.333zM512 533.333c99.84 0 298.667-49.493 298.667-149.333v-218.88c0-37.12-29.44-68.693-70.827-92.16v316.16c0 23.893-116.907 78.507-227.84 78.507s-227.84-54.613-227.84-78.507v-229.12c0-10.667 27.733-30.293 69.12-46.933 30.72 36.267 113.067 55.040 158.72 55.040 56.747 0 170.667-28.16 170.667-85.333v-35.413c-58.453-20.907-125.013-31.573-170.667-31.573s-111.787 10.667-170.667 31.573v0c-69.547 24.747-128 64-128 117.76v218.88c0 99.84 198.827 149.333 298.667 149.333zM512 800c-41.387 0-74.667-33.28-74.667-74.667s33.28-74.667 74.667-74.667c41.387 0 74.667 33.28 74.667 74.667s-33.28 74.667-74.667 74.667zM512 576c-82.347 0-149.333 66.987-149.333 149.333s66.987 149.333 149.333 149.333c82.347 0 149.333-66.987 149.333-149.333s-66.987-149.333-149.333-149.333z" />
<glyph unicode="&#xe970;" glyph-name="lock-outline" d="M512 234.667c-47.36 0-85.333 38.4-85.333 85.333 0 47.36 37.973 85.333 85.333 85.333 47.128 0 85.333-38.205 85.333-85.333v0c0-47.128-38.205-85.333-85.333-85.333v0zM768 106.667v426.667h-512v-426.667h512zM768 618.667c47.128 0 85.333-38.205 85.333-85.333v0-426.667c0-47.128-38.205-85.333-85.333-85.333v0h-512c-47.36 0-85.333 38.4-85.333 85.333v426.667c0 47.36 37.973 85.333 85.333 85.333h42.667v85.333c0 117.821 95.513 213.333 213.333 213.333v0c117.821 0 213.333-95.513 213.333-213.333v0-85.333h42.667zM512 832c-70.692 0-128-57.308-128-128v0-85.333h256v85.333c0 70.692-57.308 128-128 128v0z" />
<glyph unicode="&#xe971;" glyph-name="saca" d="M515.852 659.626c-62.759 0-219.177 173.115-177.722 234.651 20.536 30.431 54.123 20.287 96.346-2.93 25.142-13.75 54.123-20.737 81.376-15.328 26.293 5.41 48.748 25.020 74.274 33.586 32.819 11.27 80.416 25.022 99.032-21.638 27.637-69.201-110.547-228.34-173.307-228.34zM852.038 242.574c0-203.908-152.24-267.192-340.037-267.192s-340.037 63.284-340.037 267.192 152.24 441.236 340.037 441.236 340.037-237.328 340.037-441.236zM686.539 677.256c0-12.603-5.285-24.19-13.62-32.525-8.334-8.334-19.717-13.416-32.524-13.416h-256.94c-25.409 0-45.94 20.531-45.94 45.94 0 12.603 5.082 24.19 13.417 32.524s19.717 13.417 32.524 13.417h256.941c25.409 0 46.144-20.531 46.144-45.941z" />
<glyph unicode="&#xe972;" glyph-name="phone-outline" d="M853.333 298.667c-51.2 0-106.667 8.533-153.6 25.6-4.267 0-8.533 0-12.8 0-12.8 0-21.333-4.267-29.867-12.8l-93.867-93.867c-119.467 64-221.867 162.133-281.6 281.6l93.867 93.867c12.8 12.8 17.067 29.867 8.533 42.667-12.8 46.933-21.333 102.4-21.333 153.6 0 21.333-21.333 42.667-42.667 42.667h-149.333c-21.333 0-42.667-21.333-42.667-42.667 0-401.067 324.267-725.333 725.333-725.333 21.333 0 42.667 21.333 42.667 42.667v149.333c0 21.333-21.333 42.667-42.667 42.667zM213.333 746.667h64c4.267-38.4 12.8-76.8 21.333-110.933l-51.2-51.2c-17.067 51.2-29.867 106.667-34.133 162.133zM810.667 149.333c-55.467 4.267-110.933 17.067-162.133 34.133l51.2 51.2c34.133-8.533 72.533-17.067 110.933-17.067v-68.267z" />
<glyph unicode="&#xe973;" glyph-name="account-outline" d="M512 789.333c94.257 0 170.667-76.41 170.667-170.667v0c0-94.257-76.41-170.667-170.667-170.667v0c-94.257 0-170.667 76.41-170.667 170.667v0c0 94.257 76.41 170.667 170.667 170.667v0zM512 704c-47.128 0-85.333-38.205-85.333-85.333v0c0-47.128 38.205-85.333 85.333-85.333v0c47.128 0 85.333 38.205 85.333 85.333v0c0 47.128-38.205 85.333-85.333 85.333v0zM512 405.333c113.92 0 341.333-56.747 341.333-170.667v-128h-682.667v128c0 113.92 227.413 170.667 341.333 170.667zM512 324.267c-126.72 0-260.267-62.293-260.267-89.6v-46.933h520.533v46.933c0 27.307-133.547 89.6-260.267 89.6z" />
<glyph unicode="&#xe974;" glyph-name="mobile" d="M736 960h-448c-52.8 0-96-43.2-96-96v-832c0-52.8 43.2-96 96-96h448c52.8 0 96 43.2 96 96v832c0 52.8-43.2 96-96 96zM384 912h256v-32h-256v32zM512 0c-35.346 0-64 28.654-64 64s28.654 64 64 64 64-28.654 64-64-28.654-64-64-64zM768 192h-512v640h512v-640z" />
<glyph unicode="&#xe975;" glyph-name="sign" d="M910.284 341.333c-31.445 0-56.889-25.472-56.889-56.889v-142.222c0-15.708-12.75-28.444-28.444-28.444h-625.888c-15.723 0-28.444 12.736-28.444 28.444v625.778c0 15.708 12.722 28.444 28.444 28.444h142.222c31.445 0 56.917 25.472 56.917 56.889s-25.474 56.889-56.917 56.889h-227.556c-31.445 0-56.917-25.472-56.917-56.889v-796.444c0-31.417 25.472-56.889 56.917-56.889h796.555c31.445 0 56.889 25.472 56.889 56.889v227.556c0 31.417-25.444 56.889-56.889 56.889zM749.173 773.541l81.305-81.319-338.388-350.889h-93.888v93.876l350.971 338.332zM749.895 910.222c-14.556 0-29.060-5.541-40.171-16.626l-425.328-410.041v-256h256.055l410.112 425.25c22.167 22.167 22.167 58.098 0 80.263l-160.556 160.528c-11.056 11.084-25.611 16.626-40.112 16.626v0z" />
<glyph unicode="&#xe976;" glyph-name="auto_awesome" d="M810 554.667l54 118 118 52-118 54-54 118-52-118-118-54 118-52zM490 532.667l-106 236-106-236-236-106 236-106 106-236 106 236 236 106zM810 298.667l-52-118-118-52 118-54 52-118 54 118 118 54-118 52z" />
<glyph unicode="&#xe977;" glyph-name="auto_fix_high" d="M320 700.667l106-60-60 106 60 106-106-60-106 60 60-106-60-106zM832 280.667l-106 60 60-106-60-106 106 60 106-60-60 106 60 106zM938 852.667l-106-60-106 60 60-106-60-106 106 60 106-60-60 106zM614 626.667q-14 14-31 14t-31-14l-496-496q-14-14-14-31t14-31l98-98q14-14 31-14t31 14l496 496q14 14 14 31t-14 29l-98 100zM570 392.667l-92 92 104 104 92-92-104-104z" />
<glyph unicode="&#xe978;" glyph-name="auto_fix_normal" d="M938 852.667l-106-60-106 60 60-106-60-106 106 60 106-60-60 106zM614 626.667q-14 14-31 14t-31-14l-496-496q-14-14-14-31t14-31l98-98q14-14 31-14t31 14l496 496q14 14 14 31t-14 29l-98 100zM570 392.667l-92 92 104 104 92-92-104-104z" />
<glyph unicode="&#xe979;" glyph-name="auto_fix_off" d="M982 896.667l-108-60-106 60 60-108-60-106 106 60 108-60-60 106zM626 630.667l90-90-104-104 34-36 110 110q12 12 12 30t-12 30l-100 100q-14 12-31 12t-29-12l-110-110 34-34 106 104zM592 346.667l-452 452-54-54 292-292-280-280q-12-12-12-30t12-30l100-100q12-12 30-12t30 12l280 280 292-292 54 54-292 292z" />
<glyph unicode="&#xe97a;" glyph-name="estrellaPolarier" d="M753.288-40.239c-6.606 9.752-16.043 22.965-20.448 29.257-4.719 6.291-19.819 27.684-33.347 47.188-13.841 19.819-26.426 37.121-27.684 39.009-1.573 1.573-5.662 7.55-9.752 13.212-3.775 5.348-13.212 18.874-21.077 29.572s-16.672 23.908-19.819 29.257c-3.46 5.348-8.493 12.583-11.639 16.043-6.606 7.235-21.077 27.37-34.919 49.391-5.033 7.864-11.326 15.414-13.841 16.359-9.123 3.46-5.348 12.897 7.235 17.301 18.245 5.977 62.603 24.853 87.456 36.807 27.999 13.212 33.661 13.528 42.469 0.315 4.089-5.348 8.493-10.695 9.752-11.010 1.258-0.629 2.517-2.831 2.517-5.033 0-1.887 4.089-8.493 8.808-14.47 5.033-5.977 18.874-24.853 30.83-41.84 11.954-17.301 24.853-35.549 28.943-40.896 3.775-5.662 11.010-15.73 15.73-22.65 4.719-7.235 16.672-24.223 26.741-37.751 9.752-13.841 24.853-35.234 33.347-47.188 8.493-12.268 19.19-27.055 23.908-33.032 18.874-25.168 33.032-45.3 33.032-47.188 0-0.944-12.268-5.662-27.37-10.381-15.414-4.404-44.042-13.212-64.49-19.503-50.333-15.099-51.593-15.099-66.378 7.235zM228.872 144.109c0 3.146 2.517 9.752 5.348 15.414s9.123 22.021 13.841 36.807c9.123 27.684 17.301 51.277 65.748 185.606 6.921 19.819 13.528 38.38 14.47 41.211 1.258 3.146-3.146 12.268-10.381 22.336-6.606 9.752-22.965 32.717-36.178 51.906-13.212 18.874-26.426 36.178-28.943 38.694-2.831 2.202-5.033 5.348-5.033 7.235 0 2.831-9.752 16.988-35.234 50.020-4.719 6.291-8.808 12.897-8.808 14.157 0 1.573-5.348 9.123-11.639 17.301-6.606 8.179-16.988 22.021-22.965 30.83-22.65 33.347-33.347 48.131-43.098 60.401-11.010 13.528-12.897 18.245-6.291 18.245 2.202 0 14.157 5.033 27.055 11.010 12.583 5.977 24.223 11.010 25.797 11.010s18.561 7.235 37.751 15.73c19.19 8.808 35.863 15.73 37.436 15.73 1.258 0 9.752-10.695 18.561-23.594s18.245-25.482 20.763-27.999c2.517-2.517 4.719-5.662 4.719-7.235s4.089-7.55 8.808-13.528c5.033-5.977 18.874-24.853 30.83-41.84 11.954-17.301 24.853-35.549 28.628-40.896 4.089-5.662 16.672-23.594 28.313-40.267 11.954-16.672 33.347-47.188 47.502-67.636 20.763-29.257 26.111-38.694 24.853-44.986-0.944-4.404-7.55-24.538-14.785-44.357s-15.73-44.042-18.874-53.48c-3.46-9.437-9.752-27.37-14.157-39.323-4.719-12.268-9.123-24.853-10.066-28.313s-6.291-19.19-11.954-34.605c-5.662-15.73-11.954-33.347-14.157-39.323-1.887-5.977-7.864-22.336-12.583-36.178-10.381-27.999 0.315-22.336-94.376-51.593-16.359-5.033-32.403-10.066-35.234-11.326-4.089-1.573-5.662-0.629-5.662 2.831zM596.938 676.076c-7.864 4.404-27.999 13.841-44.671 21.705-30.515 13.841-30.515 13.841-22.965 37.121 4.089 12.583 9.752 29.257 12.583 37.121 8.179 22.965 26.741 75.501 33.976 97.208 7.864 22.965 16.043 30.515 44.042 40.896 9.752 3.46 25.168 10.066 33.661 14.47s16.988 7.864 18.874 7.864c1.573 0 12.268 4.404 23.908 9.752 20.134 9.437 27.37 10.381 21.077 2.202-1.887-2.202-5.348-11.326-8.179-19.819-2.517-8.808-11.010-33.347-18.874-55.053s-16.672-46.56-19.819-55.053c-3.146-8.808-8.179-23.594-11.639-33.032-8.808-25.168-13.212-37.436-19.503-55.053-16.043-46.873-20.448-56.626-24.223-57.255-2.202-0.315-10.381 2.831-18.245 6.921z" />
<glyph unicode="&#xe97b;" glyph-name="archivoTachado" d="M98.133 861.867c17.067 17.067 42.667 17.067 59.733 0l768-768c17.067-17.067 17.067-42.667 0-59.733s-42.667-17.067-59.733 0l-38.4 38.4c-25.6-29.867-59.733-51.2-102.4-51.2h-375.467c-21.333 0-42.667 0-59.733 0s-34.133 4.267-51.2 12.8c-25.6 12.8-42.667 29.867-55.467 55.467-8.533 17.067-8.533 34.133-12.8 51.2 0 17.067 0 34.133 0 59.733v529.067l-72.533 72.533c-17.067 17.067-17.067 42.667 0 59.733zM256 644.267v-443.733c0-25.6 0-38.4 0-51.2s4.267-17.067 4.267-17.067c4.267-8.533 8.533-12.8 17.067-17.067 0 0 8.533-4.267 17.067-4.267 12.8 0 29.867 0 51.2 0h379.733c17.067 0 34.133 12.8 38.4 25.6l-507.733 507.733zM320 832c0 25.6 17.067 42.667 42.667 42.667h192c12.8 0 21.333-4.267 29.867-12.8l256-256c8.533-8.533 12.8-17.067 12.8-29.867v-213.333c0-25.6-17.067-42.667-42.667-42.667s-42.667 17.067-42.667 42.667v170.667h-76.8c-21.333 0-42.667 0-59.733 0s-34.133 4.267-51.2 12.8c-25.6 12.8-42.667 29.867-55.467 55.467-8.533 17.067-8.533 34.133-12.8 51.2 0 17.067 0 34.133 0 59.733v76.8h-149.333c-25.6 0-42.667 17.067-42.667 42.667zM597.333 729.6l110.933-110.933h-17.067c-25.6 0-38.4 0-51.2 0s-17.067 4.267-17.067 4.267c-8.533 4.267-12.8 8.533-17.067 17.067 0 0-4.267 8.533-4.267 17.067 0 12.8 0 29.867 0 51.2v21.333z" />
<glyph unicode="&#xe990;" glyph-name="unlocked" d="M768 896c105.87 0 192-86.13 192-192v-192h-128v192c0 35.29-28.71 64-64 64h-128c-35.29 0-64-28.71-64-64v-192h16c26.4 0 48-21.6 48-48v-480c0-26.4-21.6-48-48-48h-544c-26.4 0-48 21.6-48 48v480c0 26.4 21.6 48 48 48h400v192c0 105.87 86.13 192 192 192h128z" />
<glyph unicode="&#xe99a;" glyph-name="pie-chart" d="M448 384v448c-247.424 0-448-200.576-448-448s200.576-448 448-448 448 200.576 448 448c0 72.034-17.028 140.084-47.236 200.382l-400.764-200.382zM912.764 712.382c-73.552 146.816-225.374 247.618-400.764 247.618v-448l400.764 200.382z" />
<glyph unicode="&#xe9ce;" glyph-name="eye" d="M512 768c-223.318 0-416.882-130.042-512-320 95.118-189.958 288.682-320 512-320 223.312 0 416.876 130.042 512 320-95.116 189.958-288.688 320-512 320zM764.45 598.296c60.162-38.374 111.142-89.774 149.434-150.296-38.292-60.522-89.274-111.922-149.436-150.296-75.594-48.218-162.89-73.704-252.448-73.704-89.56 0-176.858 25.486-252.452 73.704-60.158 38.372-111.138 89.772-149.432 150.296 38.292 60.524 89.274 111.924 149.434 150.296 3.918 2.5 7.876 4.922 11.86 7.3-9.96-27.328-15.41-56.822-15.41-87.596 0-141.382 114.616-256 256-256 141.382 0 256 114.618 256 256 0 30.774-5.452 60.268-15.408 87.598 3.978-2.378 7.938-4.802 11.858-7.302v0zM512 544c0-53.020-42.98-96-96-96s-96 42.98-96 96 42.98 96 96 96 96-42.982 96-96z" />
<glyph unicode="&#xe9d1;" glyph-name="eye-blocked" d="M945.942 945.942c-18.746 18.744-49.136 18.744-67.882 0l-202.164-202.164c-51.938 15.754-106.948 24.222-163.896 24.222-223.318 0-416.882-130.042-512-320 41.122-82.124 100.648-153.040 173.022-207.096l-158.962-158.962c-18.746-18.746-18.746-49.136 0-67.882 9.372-9.374 21.656-14.060 33.94-14.060s24.568 4.686 33.942 14.058l864 864c18.744 18.746 18.744 49.138 0 67.884zM416 640c42.24 0 78.082-27.294 90.92-65.196l-121.724-121.724c-37.902 12.838-65.196 48.68-65.196 90.92 0 53.020 42.98 96 96 96zM110.116 448c38.292 60.524 89.274 111.924 149.434 150.296 3.918 2.5 7.876 4.922 11.862 7.3-9.962-27.328-15.412-56.822-15.412-87.596 0-54.89 17.286-105.738 46.7-147.418l-60.924-60.924c-52.446 36.842-97.202 83.882-131.66 138.342zM768 518c0 27.166-4.256 53.334-12.102 77.898l-321.808-321.808c24.568-7.842 50.742-12.090 77.91-12.090 141.382 0 256 114.618 256 256zM830.026 670.026l-69.362-69.362c1.264-0.786 2.53-1.568 3.786-2.368 60.162-38.374 111.142-89.774 149.434-150.296-38.292-60.522-89.274-111.922-149.436-150.296-75.594-48.218-162.89-73.704-252.448-73.704-38.664 0-76.902 4.76-113.962 14.040l-76.894-76.894c59.718-21.462 123.95-33.146 190.856-33.146 223.31 0 416.876 130.042 512 320-45.022 89.916-112.118 166.396-193.974 222.026z" />
<glyph unicode="&#xe9d9;" glyph-name="star-full" d="M1024 562.95l-353.78 51.408-158.22 320.582-158.216-320.582-353.784-51.408 256-249.538-60.432-352.352 316.432 166.358 316.432-166.358-60.434 352.352 256.002 249.538z" />
<glyph unicode="&#xe9e1;" glyph-name="smile" d="M512-64c282.77 0 512 229.23 512 512s-229.23 512-512 512-512-229.23-512-512 229.23-512 512-512zM512 864c229.75 0 416-186.25 416-416s-186.25-416-416-416-416 186.25-416 416 186.25 416 416 416zM256 640c0 35.346 28.654 64 64 64s64-28.654 64-64c0-35.346-28.654-64-64-64s-64 28.654-64 64zM640 640c0 35.346 28.654 64 64 64s64-28.654 64-64c0-35.346-28.654-64-64-64s-64 28.654-64 64zM704.098 332.74l82.328-49.396c-55.962-93.070-157.916-155.344-274.426-155.344s-218.464 62.274-274.426 155.344l82.328 49.396c39.174-65.148 110.542-108.74 192.098-108.74s152.924 43.592 192.098 108.74z" />
<glyph unicode="&#xe9e2;" glyph-name="smile2" d="M512 960c-282.77 0-512-229.23-512-512s229.23-512 512-512 512 229.23 512 512-229.23 512-512 512zM704 704c35.346 0 64-28.654 64-64s-28.654-64-64-64-64 28.654-64 64 28.654 64 64 64zM320 704c35.346 0 64-28.654 64-64s-28.654-64-64-64-64 28.654-64 64 28.654 64 64 64zM512 128c-116.51 0-218.464 62.274-274.426 155.344l82.328 49.396c39.174-65.148 110.542-108.74 192.098-108.74s152.924 43.592 192.098 108.74l82.328-49.396c-55.962-93.070-157.916-155.344-274.426-155.344z" />
<glyph unicode="&#xe9e5;" glyph-name="sad" d="M512-64c282.77 0 512 229.23 512 512s-229.23 512-512 512-512-229.23-512-512 229.23-512 512-512zM512 864c229.75 0 416-186.25 416-416s-186.25-416-416-416-416 186.25-416 416 186.25 416 416 416zM256 640c0 35.346 28.654 64 64 64s64-28.654 64-64c0-35.346-28.654-64-64-64s-64 28.654-64 64zM640 640c0 35.346 28.654 64 64 64s64-28.654 64-64c0-35.346-28.654-64-64-64s-64 28.654-64 64zM319.902 179.26l-82.328 49.396c55.962 93.070 157.916 155.344 274.426 155.344 116.508 0 218.462-62.274 274.426-155.344l-82.328-49.396c-39.174 65.148-110.542 108.74-192.098 108.74-81.558 0-152.924-43.592-192.098-108.74z" />
<glyph unicode="&#xe9e6;" glyph-name="sad2" d="M512 960c-282.77 0-512-229.23-512-512s229.23-512 512-512 512 229.23 512 512-229.23 512-512 512zM704 704c35.346 0 64-28.654 64-64s-28.654-64-64-64-64 28.654-64 64 28.654 64 64 64zM320 704c35.346 0 64-28.654 64-64s-28.654-64-64-64-64 28.654-64 64 28.654 64 64 64zM704.098 179.26c-39.174 65.148-110.544 108.74-192.098 108.74-81.556 0-152.924-43.592-192.098-108.74l-82.328 49.396c55.96 93.070 157.916 155.344 274.426 155.344 116.508 0 218.464-62.274 274.426-155.344l-82.328-49.396z" />
<glyph unicode="&#xe9e9;" glyph-name="grin" d="M512-64c282.77 0 512 229.23 512 512s-229.23 512-512 512-512-229.23-512-512 229.23-512 512-512zM512 864c229.75 0 416-186.25 416-416s-186.25-416-416-416-416 186.25-416 416 186.25 416 416 416zM192 448v-64c0-140.8 115.2-256 256-256h128c140.8 0 256 115.2 256 256v64h-640zM384 203.012c-26.538 9.458-50.924 24.822-71.544 45.446-36.406 36.402-56.456 84.54-56.456 135.542h128v-180.988zM576 192h-128v192h128v-192zM711.544 248.458c-20.624-20.624-45.010-35.988-71.544-45.446v180.988h128c0-51.002-20.048-99.14-56.456-135.542zM225.352 576c0.002 0 0 0 0 0 9.768 0 18.108 7.056 19.724 16.69 6.158 36.684 37.668 63.31 74.924 63.31s68.766-26.626 74.924-63.31c1.616-9.632 9.956-16.69 19.722-16.69 9.768 0 18.108 7.056 19.724 16.688 1.082 6.436 1.628 12.934 1.628 19.312 0 63.962-52.038 116-116 116s-116-52.038-116-116c0-6.378 0.548-12.876 1.628-19.312 1.62-9.632 9.96-16.688 19.726-16.688zM609.352 576c0.002 0 0 0 0 0 9.77 0 18.112 7.056 19.724 16.69 6.158 36.684 37.668 63.31 74.924 63.31s68.766-26.626 74.924-63.31c1.616-9.632 9.958-16.69 19.722-16.69s18.108 7.056 19.722 16.688c1.082 6.436 1.628 12.934 1.628 19.312 0 63.962-52.038 116-116 116s-116-52.038-116-116c0-6.378 0.544-12.876 1.626-19.312 1.624-9.632 9.964-16.688 19.73-16.688z" />
<glyph unicode="&#xe9ea;" glyph-name="grin2" d="M512 960c-282.77 0-512-229.23-512-512s229.226-512 512-512c282.77 0 512 229.23 512 512s-229.23 512-512 512zM704 724c63.962 0 116-52.038 116-116 0-6.378-0.546-12.876-1.628-19.312-1.618-9.632-9.958-16.688-19.724-16.688s-18.108 7.056-19.722 16.69c-6.16 36.684-37.67 53.31-74.926 53.31s-68.766-16.626-74.924-53.31c-1.616-9.632-9.956-16.69-19.722-16.69-0.002 0 0 0-0.002 0-9.766 0-18.106 7.056-19.722 16.688-1.084 6.436-1.63 12.934-1.63 19.312 0 63.962 52.038 116 116 116zM320 724c63.962 0 116-52.038 116-116 0-6.378-0.548-12.876-1.628-19.312-1.618-9.632-9.956-16.688-19.724-16.688s-18.106 7.056-19.722 16.69c-6.16 36.684-37.67 53.31-74.926 53.31s-68.766-16.626-74.924-53.31c-1.616-9.632-9.956-16.69-19.722-16.69 0 0 0 0 0 0-9.766 0-18.106 7.056-19.724 16.688-1.082 6.436-1.63 12.934-1.63 19.312 0 63.962 52.038 116 116 116zM192 384h192v-247.846c-110.094 28.606-192 129.124-192 247.846zM448 128v256h128v-256h-128zM640 136.154v247.846h192c0-118.722-81.904-219.24-192-247.846z" />
<glyph unicode="&#xe9ed;" glyph-name="angry" d="M512-64c282.77 0 512 229.23 512 512s-229.23 512-512 512-512-229.23-512-512 229.23-512 512-512zM512 864c229.75 0 416-186.25 416-416s-186.25-416-416-416-416 186.25-416 416 186.25 416 416 416zM704.098 179.26c-39.174 65.148-110.544 108.74-192.098 108.74-81.556 0-152.924-43.592-192.098-108.74l-82.328 49.396c55.96 93.070 157.916 155.344 274.426 155.344 116.508 0 218.464-62.274 274.426-155.344l-82.328-49.396zM767.042 679.76c4.284-17.144-6.14-34.518-23.282-38.804-17.626-4.45-38.522-12.12-56.936-21.35 10.648-11.43 17.174-26.752 17.174-43.606 0-35.346-28.654-64-64-64s-64 28.654-64 64c0 1.17 0.036 2.33 0.098 3.484 2.032 47.454 45.212 78.946 81.592 97.138 34.742 17.37 69.102 26.060 70.548 26.422 17.146 4.288 34.518-6.138 38.806-23.284zM256.958 679.76c4.288 17.146 21.66 27.572 38.806 23.284 1.446-0.362 35.806-9.052 70.548-26.422 36.38-18.192 79.56-49.684 81.592-97.138 0.062-1.154 0.098-2.314 0.098-3.484 0-35.346-28.654-64-64-64s-64 28.654-64 64c0 16.854 6.526 32.176 17.174 43.606-18.414 9.23-39.31 16.9-56.936 21.35-17.142 4.286-27.566 21.66-23.282 38.804z" />
<glyph unicode="&#xe9ee;" glyph-name="angry2" d="M512 960c-282.77 0-512-229.23-512-512s229.23-512 512-512 512 229.23 512 512-229.23 512-512 512zM576.094 579.484c2.032 47.454 45.21 78.948 81.592 97.138 34.742 17.372 69.104 26.060 70.548 26.422 17.146 4.288 34.52-6.138 38.806-23.284s-6.138-34.518-23.284-38.806c-17.624-4.45-38.522-12.12-56.936-21.35 10.648-11.43 17.174-26.752 17.174-43.606 0-35.346-28.654-64-64-64s-64 28.654-64 64c0.002 1.17 0.038 2.332 0.1 3.486zM256.958 679.76c4.288 17.146 21.66 27.572 38.806 23.284 1.446-0.362 35.806-9.052 70.548-26.422 36.38-18.192 79.56-49.684 81.592-97.138 0.062-1.154 0.098-2.314 0.098-3.484 0-35.346-28.654-64-64-64s-64 28.654-64 64c0 16.854 6.526 32.176 17.174 43.606-18.414 9.23-39.31 16.9-56.936 21.35-17.142 4.286-27.566 21.66-23.282 38.804zM704.098 179.26c-39.174 65.148-110.544 108.74-192.098 108.74-81.556 0-152.924-43.592-192.098-108.74l-82.328 49.396c55.96 93.070 157.916 155.344 274.426 155.344 116.508 0 218.464-62.274 274.426-155.344l-82.328-49.396z" />
<glyph unicode="&#xe9f7;" glyph-name="neutral" d="M512-64c282.77 0 512 229.23 512 512s-229.23 512-512 512-512-229.23-512-512 229.23-512 512-512zM512 864c229.75 0 416-186.25 416-416s-186.25-416-416-416-416 186.25-416 416 186.25 416 416 416zM256 640c0-35.346 28.654-64 64-64s64 28.654 64 64-28.654 64-64 64-64-28.654-64-64zM640 640c0-35.346 28.654-64 64-64s64 28.654 64 64-28.654 64-64 64-64-28.654-64-64zM384 256h256v-64h-256v64z" />
<glyph unicode="&#xe9f8;" glyph-name="neutral2" d="M512 960c-282.77 0-512-229.23-512-512s229.226-512 512-512c282.77 0 512 229.23 512 512s-229.23 512-512 512zM640 192h-256v64h256v-64zM704 704c35.346 0 64-28.654 64-64s-28.654-64-64-64-64 28.654-64 64c0 35.346 28.654 64 64 64zM320 704c35.346 0 64-28.654 64-64s-28.654-64-64-64-64 28.654-64 64c0 35.346 28.654 64 64 64z" />
<glyph unicode="&#xea50;" glyph-name="menu_ArrowDown" d="M287.986 608c8.908 0 17.77-3.698 24.096-10.928l199.918-228.478 199.918 228.478c11.636 13.3 31.856 14.65 45.154 3.010 13.3-11.638 14.648-31.854 3.010-45.154l-224-256c-6.076-6.944-14.854-10.928-24.082-10.928s-18.006 3.984-24.082 10.928l-224 256c-11.638 13.3-10.292 33.516 3.010 45.154 6.070 5.312 13.582 7.918 21.058 7.918z" />
<glyph unicode="&#xead9;" glyph-name="chrome" d="M258.278 513.458l-146.532 253.802c93.818 117.464 238.234 192.74 400.254 192.74 187.432 0 351.31-100.736 440.532-251h-417.77c-7.504 0.65-15.092 1-22.762 1-121.874 0-224.578-83.644-253.722-196.542zM695.306 635h293.46c22.74-57.93 35.234-121.004 35.234-187 0-280.826-226.1-508.804-506.186-511.926l209.394 362.678c29.48 42.378 46.792 93.826 46.792 149.248 0 73.17-30.164 139.42-78.694 187zM326 448c0 102.56 83.44 186 186 186s186-83.44 186-186c0-102.56-83.44-186-186-186s-186 83.44-186 186zM582.182 195.558l-146.578-253.878c-246.532 36.884-435.604 249.516-435.604 506.32 0 91.218 23.884 176.846 65.696 251.024l209.030-362.054c41.868-89.112 132.476-150.97 237.274-150.97 24.3 0 47.836 3.34 70.182 9.558z" />
<glyph unicode="&#xeada;" glyph-name="firefox" d="M1022.526 625.86l-11.86-76.080c0 0-16.954 140.856-37.732 193.514-31.846 80.688-46.014 80.040-46.108 79.922 21.33-54.204 17.462-83.324 17.462-83.324s-37.792 102.998-137.712 135.768c-110.686 36.282-170.57 26.364-177.488 24.486-1.050 0.008-2.064 0.010-3.030 0.010 0.818-0.062 1.612-0.146 2.426-0.212-0.034-0.020-0.090-0.042-0.082-0.052 0.45-0.548 122.306-21.302 143.916-50.996 0 0-51.76 0-103.272-14.842-2.328-0.666 189.524-23.964 228.746-215.674 0 0-21.030 43.876-47.040 51.328 17.106-52.036 12.714-150.776-3.576-199.85-2.096-6.312-4.24 27.282-36.328 41.75 10.28-73.646-0.616-190.456-51.708-222.632-3.982-2.504 32.030 115.31 7.242 69.762-142.708-218.802-311.404-100.972-387.248-49.11 38.866-8.462 112.654 1.318 145.314 25.612 0.042 0.030 0.078 0.056 0.118 0.086 35.468 24.252 56.472 41.964 75.334 37.772 18.874-4.214 31.438 14.726 16.78 31.53-14.676 16.838-50.314 39.978-98.524 27.366-34-8.904-76.134-46.522-140.448-8.432-49.364 29.25-54.012 53.546-54.45 70.376 1.218 5.966 2.754 11.536 4.576 16.624 5.682 15.87 22.912 20.658 32.494 24.438 16.256-2.792 30.262-7.862 44.968-15.406 0.19 4.894 0.252 11.39-0.018 18.76 1.41 2.802 0.538 11.252-1.722 21.58-1.302 10.308-3.42 20.974-6.752 30.692 0.012 0.002 0.020 0.010 0.030 0.014 0.056 0.018 0.108 0.040 0.156 0.070 0.078 0.044 0.146 0.112 0.208 0.19 0.012 0.020 0.030 0.034 0.044 0.052 0.082 0.124 0.154 0.272 0.198 0.466 1.020 4.618 12.022 13.524 25.718 23.1 12.272 8.58 26.702 17.696 38.068 24.752 10.060 6.248 17.72 10.882 19.346 12.098 0.618 0.466 1.358 1.012 2.164 1.636 0.15 0.116 0.3 0.232 0.454 0.354 0.094 0.074 0.19 0.148 0.286 0.226 5.41 4.308 13.484 12.448 15.178 29.578 0.004 0.042 0.010 0.080 0.012 0.122 0.050 0.504 0.092 1.014 0.13 1.534 0.028 0.362 0.050 0.726 0.072 1.096 0.014 0.284 0.032 0.566 0.044 0.856 0.030 0.674 0.050 1.364 0.060 2.064 0 0.040 0.002 0.076 0.004 0.116 0.022 1.658-0.006 3.386-0.104 5.202-0.054 1.014-0.126 1.93-0.298 2.762-0.008 0.044-0.018 0.092-0.028 0.136-0.018 0.082-0.036 0.164-0.058 0.244-0.036 0.146-0.076 0.292-0.122 0.43-0.006 0.018-0.010 0.032-0.016 0.046-0.052 0.16-0.112 0.314-0.174 0.464-0.004 0.006-0.004 0.010-0.006 0.016-1.754 4.108-8.32 5.658-35.442 6.118-0.026 0.002-0.050 0.002-0.076 0.002v0c-11.066 0.188-25.538 0.194-44.502 0.118-33.25-0.134-51.628 32.504-57.494 45.132 8.040 44.46 31.276 76.142 69.45 97.626 0.722 0.406 0.58 0.742-0.274 0.978 7.464 4.514-90.246 0.124-135.186-57.036-39.888 9.914-74.654 9.246-104.616 2.214-5.754 0.162-12.924 0.88-21.434 2.652-19.924 18.056-48.448 51.402-49.976 91.208 0 0-0.092-0.072-0.252-0.204-0.020 0.382-0.056 0.76-0.072 1.142 0 0-60.716-46.664-51.628-173.882-0.022-2.036-0.064-3.986-0.12-5.874-16.432-22.288-24.586-41.020-25.192-45.156-14.56-29.644-29.334-74.254-41.356-141.98 0 0 8.408 26.666 25.284 56.866-12.412-38.022-22.164-97.156-16.436-185.856 0 0 1.514 19.666 6.874 47.994 4.186-55.010 22.518-122.924 68.858-202.788 88.948-153.32 225.67-230.74 376.792-242.616 26.836-2.212 54.050-2.264 81.424-0.186 2.516 0.178 5.032 0.364 7.55 0.574 30.964 2.174 62.134 6.852 93.238 14.366 425.172 102.798 378.942 616.198 378.942 616.198z" />
<glyph unicode="&#xeadb;" glyph-name="IE" d="M734.202 331.17h236.050c1.82 16.37 2.548 33.098 2.548 50.196 0 80.224-21.534 155.468-59.124 220.266 38.88 103.308 37.492 190.988-14.556 243.39-49.496 49.28-182.29 41.28-332.412-25.198-11.104 0.84-22.318 1.272-33.638 1.272-206.048 0-378.926-141.794-426.708-332.85 64.638 82.754 132.638 142.754 223.478 186.448-8.26-7.74-56.454-55.652-64.56-63.764-239.548-239.478-315.090-552.306-233.806-633.604 61.786-61.774 173.758-51.342 302.376 11.648 59.806-30.458 127.5-47.63 199.218-47.63 193.134 0 356.804 124.316 416.090 297.448h-237.868c-32.734-60.382-96.748-101.48-170.218-101.48-73.468 0-137.484 41.098-170.216 101.48-14.55 27.274-22.914 58.554-22.914 91.656v0.722h386.26zM348.302 447.196c5.456 97.11 86.2 174.584 184.766 174.584s179.312-77.472 184.766-174.584h-369.532zM896.966 796.192c33.526-33.88 32.688-96.214 4.012-174.022-49.136 74.908-120.518 133.936-204.792 167.64 90.106 38.638 163.406 43.756 200.78 6.382zM93.482-7.256c-42.782 42.796-29.884 132.618 25.23 240.832 34.308-96.27 101.156-177.090 187.336-229.154-95.43-43.318-173.536-50.674-212.566-11.678z" />
</font>
</defs>
</svg>
