<?xml version="1.0" encoding="utf-8"?>
<!-- Generator: Adobe Illustrator 22.0.1, SVG Export Plug-In . SVG Version: 6.00 Build 0)  -->
<svg version="1.1" id="Capa_1" xmlns="http://www.w3.org/2000/svg" xmlns:xlink="http://www.w3.org/1999/xlink" x="0px" y="0px"
	 viewBox="0 0 120.9 48.9" style="enable-background:new 0 0 120.9 48.9;" xml:space="preserve">
<style type="text/css">
	.st0{fill:#F5BD47;}
</style>
<path class="st0" d="M48.7,18c-1.1,0-1.9,0.4-2.5,1.2s-0.9,1.9-0.9,3.3c0,1.4,0.3,2.5,0.9,3.4c0.6,0.8,1.5,1.3,2.5,1.3
	c1.1,0,1.9-0.4,2.5-1.2s0.9-2,0.9-3.4s-0.3-2.5-0.9-3.3C50.6,18.5,49.8,18,48.7,18 M53.8,28c-1.3,1.4-3,2-5.1,2c-2,0-3.7-0.6-5-1.9
	c-1.4-1.3-2.1-3.1-2.1-5.4c0-1.1,0.2-2.1,0.5-3c0.4-0.9,0.9-1.8,1.5-2.4c0.7-0.7,1.4-1.2,2.3-1.5c0.9-0.3,1.8-0.5,2.8-0.5
	c1.1,0,2.1,0.2,2.9,0.5c0.9,0.4,1.8,1,2.7,2s1.4,2.6,1.4,4.8C55.8,24.8,55.2,26.7,53.8,28"/>
<path class="st0" d="M60.8,30c-1.1,0-1.9-0.3-2.5-0.9c-0.5-0.6-0.8-1.3-0.8-2.3V9.8l3.6-1.3v16.8c0,0.5,0.1,0.9,0.2,1.1
	c0.1,0.2,0.4,0.3,0.8,0.3c0.3,0,0.6,0,1.1-0.1l0.4,2.7c-0.5,0.3-0.9,0.4-1.4,0.6C61.7,30,61.2,30,60.8,30"/>
<path class="st0" d="M72.4,23.3l-2,0.1c-1.9,0-2.8,0.6-2.8,1.9c0,0.6,0.2,1.1,0.6,1.4c0.4,0.3,1,0.5,1.7,0.5c0.6,0,1.1-0.1,1.5-0.2
	c0.4-0.2,0.7-0.4,1.1-0.7L72.4,23.3L72.4,23.3z M73.3,29.8l-0.6-1.3c-0.5,0.5-1.1,0.8-1.8,1.1c-0.7,0.3-1.4,0.4-2.3,0.4
	c-1.3,0-2.4-0.4-3.3-1.2S64,26.8,64,25.5c0-1.5,0.5-2.6,1.6-3.4c1.1-0.8,2.5-1.2,4.3-1.2l2.5-0.1v-0.4c0-0.8-0.2-1.4-0.7-1.8
	c-0.5-0.4-1.1-0.6-1.9-0.6s-1.4,0.1-2,0.3c-0.5,0.2-1.1,0.4-1.7,0.8l-1.3-2.3c0.9-0.6,1.8-1,2.6-1.2c0.9-0.2,1.8-0.3,2.9-0.3
	c1.8,0,3.2,0.4,4.2,1.2c1,0.8,1.4,2.1,1.4,3.9V26c0,1.9,0.1,3.2,0.3,3.8H73.3z"/>
<path class="st0" d="M86.3,18.8c-0.3-0.2-0.5-0.3-0.8-0.3c-0.3-0.1-0.6-0.1-0.9-0.1c-0.9,0-1.8,0.4-2.7,1.3v10h-3.6V16.5l3-1.1
	l0.4,1.5c0.7-0.6,1.4-1.1,2-1.4c0.6-0.3,1.3-0.4,1.9-0.4c0.8,0,1.4,0.2,2,0.6L86.3,18.8z"/>
<path class="st0" d="M88.6,29.8v-13l3.6-1.3v14.3H88.6z M90.4,14.3c-0.6,0-1.1-0.2-1.6-0.6c-0.4-0.4-0.7-0.9-0.7-1.6
	c0-0.6,0.2-1.1,0.6-1.5s0.9-0.6,1.6-0.6c0.6,0,1.1,0.2,1.6,0.6c0.4,0.4,0.7,0.9,0.7,1.5s-0.2,1.1-0.6,1.5
	C91.6,14.1,91,14.3,90.4,14.3"/>
<path class="st0" d="M100.7,17.8c-0.8,0-1.5,0.3-2,0.9c-0.5,0.6-0.8,1.3-0.8,2.2h5.5c0-0.8-0.2-1.6-0.7-2.2
	C102.2,18.2,101.5,17.8,100.7,17.8 M97.9,23.5c0,1,0.4,1.9,1.2,2.6c0.8,0.7,1.7,1,2.8,1c0.7,0,1.3-0.1,1.9-0.2
	c0.6-0.2,1.2-0.4,1.8-0.8l0.9,2.3c-0.8,0.5-1.6,0.9-2.5,1.2s-1.8,0.4-2.7,0.4C99,30,97.2,29.3,96,28c-1.2-1.4-1.8-3.2-1.8-5.3
	s0.6-3.8,1.8-5.3c1.2-1.4,2.7-2.1,4.7-2.1c1.9,0,3.5,0.7,4.6,2c1.2,1.3,1.7,3.1,1.7,5.3v1C107,23.6,97.9,23.6,97.9,23.5z"/>
<path class="st0" d="M116.7,18.8c-0.3-0.2-0.5-0.3-0.8-0.3c-0.3-0.1-0.6-0.1-0.9-0.1c-0.9,0-1.8,0.4-2.7,1.3v10h-3.6V16.5l3-1.1
	l0.4,1.5c0.7-0.6,1.4-1.1,2-1.4c0.6-0.3,1.3-0.4,1.9-0.4c0.8,0,1.4,0.2,2,0.6L116.7,18.8z"/>
<path class="st0" d="M38.8,11.6c-1.3-1.1-3-1.6-5.2-1.6h-5.1v8.8l3.6,1.2v-7h1.1c1.2,0,2.2,0.3,2.9,0.9c0.7,0.6,1,1.5,1,2.5
	c0,1.1-0.3,2-0.9,2.7c-0.6,0.6-1.6,0.9-2.8,0.9h-1.1l0,0l-3.6,1.3v8.5h3.6v-6.9h1c2.6,0,4.5-0.7,5.7-2s1.9-2.8,1.9-4.5
	C40.7,14.3,40.1,12.7,38.8,11.6"/>
<polygon class="st0" points="15.8,26.3 19.7,24.7 26.2,33.7 22,34.8 "/>
<polygon class="st0" points="17.8,14.3 20.7,6 16.8,7.7 14.9,13 "/>
<polygon class="st0" points="3.4,12.3 7.3,10.7 13.4,19.3 9.5,21 "/>
<polygon class="st0" points="9.5,21 13.4,19.3 10.3,28 6.6,29.2 "/>
<g>
	<path class="st0" d="M46.2,42.6c0.5,0,0.9,0,1.4,0.1s1,0.1,1.4,0.2c0.5,0.1,0.9,0.2,1.3,0.3c0.4,0.1,0.8,0.3,1.1,0.4
		c0.3,0.2,0.5,0.3,0.7,0.5s0.2,0.4,0.2,0.6c0,0.3-0.1,0.6-0.3,0.7c-0.2,0.2-0.3,0.2-0.5,0.2c0,0-0.1-0.1-0.3-0.2
		c-0.1-0.1-0.3-0.2-0.6-0.4s-0.5-0.3-0.9-0.5c-0.3-0.2-0.7-0.4-1.1-0.5s-0.9-0.3-1.3-0.4c-0.5-0.1-1-0.2-1.6-0.2
		c-0.3,0.4-0.6,0.7-0.9,0.8c-0.3,0.2-0.6,0.2-0.8,0.2s-0.4,0-0.5-0.1s-0.3-0.1-0.3-0.2c-0.1-0.1-0.1-0.2-0.2-0.3s0,0,0,0
		c0-0.1,0-0.2,0.1-0.4c0.1-0.1,0.2-0.3,0.5-0.4c0.1-0.1,0.3-0.2,0.6-0.2c0.2,0,0.3-0.1,0.5-0.1c0.1-0.2,0.1-0.4,0.2-0.5
		c0-0.2,0.1-0.4,0.1-0.7c0.1-0.3,0.1-0.7,0.1-1.2s0.1-1,0.1-1.6s0.1-1.1,0.1-1.7s0.1-1.1,0.1-1.6s0-0.9,0.1-1.3c0-0.4,0-0.6,0.1-0.8
		c0-0.1,0.1-0.3,0.2-0.4c0.1-0.1,0.2-0.2,0.4-0.3s0.3-0.1,0.4-0.1c0.1,0,0.3,0,0.4,0s0.2,0.1,0.3,0.2c0.1,0.1,0.1,0.2,0.1,0.4
		c0,0.1,0,0.3-0.1,0.7c0,0.3,0,0.7,0,1.2s0,1-0.1,1.5c0,0.6,0,1.1-0.1,1.7S47,39.3,47,39.8s-0.1,1-0.2,1.4
		C46.5,41.7,46.4,42.2,46.2,42.6z M43.7,44.2c0.1,0,0.2,0,0.3-0.1s0.2-0.2,0.2-0.3c0.1-0.1,0.2-0.3,0.2-0.4c-0.3,0-0.5,0-0.6,0.1
		c-0.2,0.1-0.3,0.2-0.3,0.3c-0.1,0.1-0.1,0.2,0,0.3C43.6,44.2,43.6,44.2,43.7,44.2z"/>
	<path class="st0" d="M50.8,36.3c0.2,0,0.3,0,0.5,0.1c0.1,0.1,0.3,0.2,0.4,0.4c0.1,0.2,0.2,0.4,0.3,0.7c0.1,0.3,0.1,0.7,0.1,1.1
		s0,0.9-0.1,1.3s-0.2,0.8-0.4,1.2c-0.2,0.4-0.4,0.7-0.6,0.9c-0.3,0.2-0.6,0.3-1,0.3c-0.3,0-0.6-0.1-0.8-0.3
		c-0.2-0.2-0.4-0.4-0.5-0.7c-0.1-0.3-0.2-0.6-0.3-0.9c0-0.3-0.1-0.6-0.1-0.9s0-0.5,0-0.8s0.1-0.6,0.2-0.8s0.2-0.5,0.3-0.6
		c0.1-0.2,0.3-0.3,0.5-0.3c0.1-0.2,0.2-0.3,0.3-0.5c0.1-0.1,0.2-0.2,0.4-0.3c0.1-0.1,0.3-0.1,0.4-0.1C50.5,36.3,50.7,36.3,50.8,36.3
		z M50.5,41.8c0.1,0,0.2-0.1,0.4-0.4c0.1-0.2,0.2-0.5,0.3-0.9s0.1-0.7,0.2-1.2c0-0.4,0.1-0.8,0-1.2c0-0.4-0.1-0.7-0.2-0.9
		c-0.1-0.2-0.3-0.4-0.5-0.4c-0.1,0-0.2,0.1-0.2,0.2s-0.1,0.3-0.1,0.5s-0.1,0.3-0.1,0.5s-0.1,0.3-0.2,0.4c0,0.3,0,0.7,0,1.1
		s0,0.7,0,1.1s0,0.6,0.1,0.8C50.2,41.7,50.3,41.8,50.5,41.8z"/>
	<path class="st0" d="M56.4,35.9c0-0.1,0.1-0.1,0.2-0.1s0.3,0.2,0.4,0.3c0.1,0.2,0.2,0.4,0.3,0.8c0.1,0.3,0,0.7-0.1,1.2
		s-0.3,1-0.5,1.4s-0.3,0.9-0.5,1.3s-0.4,0.9-0.6,1.3c0,0.1-0.1,0.1-0.1,0.1c-0.1,0-0.2,0-0.3-0.1l-0.1,0.1c-0.2,0-0.5-0.1-0.8-0.4
		s-0.5-0.6-0.8-1.1c-0.2-0.5-0.5-1-0.6-1.7s-0.3-1.5-0.3-2.3c0-0.1,0-0.1,0-0.2s0-0.1,0-0.2s0-0.1,0.1-0.2s0.1-0.1,0.2-0.1
		c0.4,0,0.7,0.1,0.9,0.3s0.3,0.5,0.3,0.7c0,0.8,0.1,1.5,0.2,2.1c0.1,0.6,0.3,1.1,0.4,1.5c0.1-0.2,0.2-0.4,0.3-0.7
		c0.1-0.3,0.2-0.5,0.4-0.8c0.1-0.3,0.2-0.5,0.3-0.8c0.1-0.2,0.2-0.5,0.2-0.6c0.1-0.4,0.2-0.8,0.2-1s0.1-0.4,0.1-0.5s0-0.2,0-0.3
		C56.3,36.1,56.4,36.1,56.4,35.9z"/>
	<path class="st0" d="M62.4,38.8C62.4,38.8,62.4,38.8,62.4,38.8l0.2-0.1c0,0,0.1,0,0.1,0.1v0.1c0,0,0,0.1-0.1,0.3
		c0,0.2-0.1,0.4-0.2,0.6s-0.2,0.5-0.3,0.7c-0.1,0.3-0.3,0.5-0.5,0.7s-0.4,0.4-0.6,0.5s-0.5,0.2-0.8,0.2c-0.4,0-0.8-0.1-1.1-0.2
		s-0.6-0.4-0.8-0.6c-0.2-0.3-0.4-0.5-0.5-0.8s-0.2-0.6-0.2-0.9c0-0.4,0-0.7,0.1-1.1s0.2-0.7,0.3-1s0.3-0.5,0.4-0.8
		c0.1-0.2,0.3-0.4,0.4-0.5s0.3-0.2,0.4-0.2c0.2,0,0.4-0.1,0.6-0.1s0.4,0,0.5,0c0.2,0,0.3,0.1,0.4,0.1c0.2,0.1,0.3,0.2,0.4,0.5
		s0.2,0.5,0.2,0.8c0,0.6-0.1,1.1-0.4,1.4S60.3,39,60,39c-0.1,0-0.3,0-0.4,0s-0.3-0.1-0.4-0.1c0,0.3,0,0.6,0.1,0.8s0.2,0.5,0.3,0.7
		c0.1,0.2,0.3,0.4,0.4,0.5c0.2,0.1,0.3,0.2,0.5,0.2s0.5-0.1,0.7-0.2s0.4-0.3,0.5-0.4c0.1-0.2,0.3-0.4,0.4-0.5
		c0.1-0.2,0.2-0.4,0.3-0.6c0.1-0.2,0.1-0.3,0.2-0.5C62.4,38.9,62.4,38.9,62.4,38.8z M60.3,36.8c-0.2,0-0.3,0.1-0.4,0.2
		s-0.2,0.2-0.3,0.4s-0.2,0.4-0.2,0.6c-0.1,0.2-0.1,0.5-0.1,0.7c0.2,0.1,0.5,0.1,0.6,0.1c0.2-0.1,0.3-0.2,0.4-0.3
		c0.1-0.1,0.2-0.3,0.3-0.5s0.1-0.4,0.1-0.6s0-0.3-0.1-0.4S60.4,36.8,60.3,36.8z"/>
	<path class="st0" d="M69.4,37.4c0,0.2,0,0.5,0,1s0,1.1,0,1.9c0,0.7-0.1,1.3-0.3,2c-0.2,0.6-0.4,1.2-0.8,1.6
		c-0.3,0.5-0.7,0.8-1.1,1.1c-0.4,0.3-0.8,0.4-1.3,0.3c-0.2,0-0.4-0.1-0.6-0.1s-0.3-0.2-0.4-0.3c-0.1-0.1-0.2-0.2-0.3-0.3
		s-0.1-0.2-0.1-0.3s0-0.1,0.1-0.1s0.1,0,0.2,0.1c0.1,0,0.2,0.1,0.3,0.2c0.1,0.1,0.3,0.1,0.4,0.1c0.2,0,0.4,0,0.6-0.2
		c0.2-0.1,0.5-0.4,0.7-0.7c0.2-0.3,0.4-0.7,0.6-1.1c0.2-0.5,0.3-1,0.3-1.6c0-0.3,0-0.6,0-0.9s0-0.7,0-1c0,0.2-0.1,0.5-0.2,0.8
		s-0.2,0.6-0.3,0.9c-0.1,0.3-0.2,0.6-0.3,0.8c-0.1,0.3-0.2,0.4-0.3,0.5c0,0,0,0.1-0.1,0.1l0,0l0,0c-0.1,0-0.2,0-0.4-0.1
		c-0.2-0.1-0.3-0.2-0.5-0.3s-0.3-0.4-0.4-0.7c-0.1-0.3-0.2-0.6-0.2-1c0-0.3,0-0.7,0-1c0-0.4,0.1-0.7,0.1-1.1s0.1-0.7,0.1-0.9
		c0-0.3,0-0.5,0-0.6s0-0.1,0-0.2s0-0.1-0.1-0.2s0-0.1,0-0.2c0,0,0.1-0.1,0.2-0.1s0.3,0,0.5,0.1s0.3,0.1,0.4,0.2s0.2,0.1,0.3,0.2
		c0.1,0.1,0.1,0.2,0.1,0.3c0,0.1,0,0.3-0.1,0.5c0,0.2-0.1,0.5-0.2,0.8s-0.1,0.6-0.2,1c0,0.4-0.1,0.8-0.1,1.2c0,0.4,0,0.7,0.1,0.9
		c0,0.2,0.1,0.4,0.1,0.5c0-0.1,0.1-0.3,0.2-0.5s0.2-0.5,0.2-0.8c0.1-0.3,0.2-0.6,0.3-0.9c0.1-0.3,0.2-0.6,0.2-0.9s0.1-0.5,0.2-0.7
		c0-0.2,0.1-0.4,0.1-0.5v-0.1c0-0.1,0-0.1,0-0.2s0-0.1-0.1-0.2s0-0.1,0-0.2c0,0,0.1-0.1,0.2-0.1s0.3,0,0.4,0.1s0.3,0.1,0.4,0.2
		s0.2,0.1,0.3,0.2C69.3,37.3,69.4,37.3,69.4,37.4z"/>
	<path class="st0" d="M72.5,36.3c0.2,0,0.3,0,0.5,0.1c0.1,0.1,0.3,0.2,0.4,0.4s0.2,0.4,0.3,0.7c0.1,0.3,0.1,0.7,0.1,1.1
		s0,0.9-0.1,1.3s-0.2,0.8-0.4,1.2c-0.2,0.4-0.4,0.7-0.6,0.9c-0.3,0.2-0.6,0.3-1,0.3c-0.3,0-0.6-0.1-0.8-0.3
		c-0.2-0.2-0.4-0.4-0.5-0.7c-0.1-0.3-0.2-0.6-0.3-0.9c0-0.3-0.1-0.6-0.1-0.9s0-0.5,0-0.8s0.1-0.6,0.2-0.8s0.2-0.5,0.3-0.6
		c0.1-0.2,0.3-0.3,0.5-0.3c0.1-0.2,0.2-0.3,0.3-0.5c0.1-0.1,0.2-0.2,0.4-0.3C71.8,36,72,36,72.1,36C72.3,36.3,72.4,36.3,72.5,36.3z
		 M72.2,41.8c0.1,0,0.2-0.1,0.4-0.4s0.2-0.5,0.3-0.9s0.1-0.7,0.2-1.2c0-0.4,0.1-0.8,0-1.2c0-0.4-0.1-0.7-0.2-0.9
		c-0.1-0.2-0.3-0.4-0.5-0.4c-0.1,0-0.2,0.1-0.2,0.2s-0.1,0.3-0.1,0.5S72,37.8,72,38s-0.1,0.3-0.2,0.4c0,0.3,0,0.7,0,1.1s0,0.7,0,1.1
		s0,0.6,0.1,0.8S72.1,41.8,72.2,41.8z"/>
	<path class="st0" d="M78.4,40.6c0,0.3,0,0.6,0.1,0.8c0,0.2,0.1,0.4,0.1,0.5s0,0.2,0,0.3c0,0.1-0.1,0.1-0.2,0.1
		c-0.2,0-0.4,0-0.6-0.1s-0.4-0.2-0.5-0.3s-0.3-0.3-0.4-0.6s-0.1-0.5-0.1-0.8c0-0.1,0-0.2,0-0.3s0-0.2,0-0.3L75.9,42
		c0,0.1,0,0.1,0.1,0.2s0,0.1,0,0.2s0,0.1-0.1,0.1s-0.2,0-0.3,0c-0.1,0-0.3-0.1-0.4-0.2s-0.3-0.2-0.4-0.4c-0.1-0.2-0.2-0.4-0.3-0.6
		c-0.1-0.2-0.1-0.5-0.1-0.9c0-0.3,0-0.7,0-1c0-0.4,0.1-0.7,0.1-1.1s0.1-0.7,0.1-0.9c0-0.3,0-0.5,0-0.6s0-0.1,0-0.2s0-0.1-0.1-0.2
		c0-0.1,0-0.1,0-0.1s0.1-0.1,0.2-0.1c0.2,0,0.3,0,0.5,0.1c0.2,0,0.3,0.1,0.4,0.2s0.2,0.1,0.3,0.2C76,36.8,76,36.9,76,37
		c0,0.1,0,0.3-0.1,0.5c0,0.2-0.1,0.5-0.1,0.8c-0.1,0.3-0.1,0.6-0.1,1s-0.1,0.8-0.1,1.2c0,0.3,0,0.6,0,0.8c0,0.2,0.1,0.4,0.1,0.5
		c0.1-0.1,0.1-0.3,0.2-0.5s0.2-0.4,0.3-0.7c0.1-0.2,0.2-0.5,0.3-0.8c0.1-0.3,0.2-0.5,0.3-0.7c0-0.2,0-0.4,0-0.6s0-0.3,0-0.3
		c0-0.1,0-0.2,0.1-0.3s0.1-0.2,0.3-0.2c0.1,0,0.2,0,0.3,0s0.3,0,0.4,0.1c0.1,0,0.3,0.1,0.4,0.2s0.2,0.2,0.2,0.3c0,0.1,0,0.2,0,0.3
		c0,0.1,0,0.2-0.1,0.4s0,0.4-0.1,0.6C78.4,39.8,78.4,40.2,78.4,40.6z"/>
	<path class="st0" d="M82.4,35.8c0.2,0,0.3,0,0.5,0s0.3,0,0.4,0.1s0.2,0.1,0.3,0.3s0.1,0.3,0.1,0.5s0,0.5,0,0.7s-0.1,0.4-0.1,0.6
		s-0.1,0.3-0.3,0.4c-0.1,0.1-0.2,0.2-0.4,0.2c-0.3,0-0.5,0-0.7-0.1s-0.3-0.2-0.3-0.3c0-0.1,0-0.2,0-0.3c0-0.1,0-0.3,0.1-0.4
		c0-0.2,0.1-0.3,0.1-0.5c-0.3,0.5-0.5,1-0.7,1.5c-0.1,0.2-0.2,0.5-0.3,0.7s-0.2,0.5-0.2,0.7c-0.1,0.2-0.1,0.5-0.2,0.7
		s-0.1,0.4-0.1,0.7c0,0.2,0.1,0.4,0.1,0.5s0.1,0.3,0.1,0.3c0,0.1,0.1,0.2,0.1,0.2c0,0.1,0,0.1,0,0.2s0,0.1-0.1,0.2
		c-0.1,0-0.2,0.1-0.3,0c-0.1,0-0.3-0.1-0.5-0.2s-0.3-0.3-0.5-0.6c-0.1-0.3-0.3-0.7-0.3-1.1c-0.1-0.5-0.1-1.1-0.1-1.8
		c0-0.3,0-0.6,0-0.9s0.1-0.6,0.1-0.9s0.1-0.5,0.2-0.7s0.2-0.3,0.3-0.3c0.4,0,0.7,0.1,0.9,0.3c0.2,0.2,0.3,0.4,0.3,0.6
		c0,0.1,0,0.2,0,0.4c0,0.1,0,0.3-0.1,0.4c0,0.2-0.1,0.3-0.1,0.5s0,0.4,0,0.6c0,0.4,0,0.8,0,1.1c0-0.3,0.1-0.5,0.2-0.8
		s0.2-0.6,0.3-0.9c0.1-0.3,0.2-0.6,0.3-0.9c0.1-0.3,0.2-0.5,0.3-0.7c0.1-0.2,0.2-0.4,0.3-0.5C82.2,35.9,82.3,35.8,82.4,35.8z"/>
	<path class="st0" d="M87.9,32.8c0-0.2,0.1-0.4,0.2-0.4c0.1-0.1,0.3-0.1,0.5,0s0.4,0.2,0.5,0.3s0.2,0.3,0.2,0.5c0,0.1,0,0.4,0,0.7
		s-0.1,0.7-0.1,1.2c-0.1,0.5-0.1,1-0.2,1.5s-0.1,1.1-0.2,1.6s-0.1,1-0.1,1.4s0,0.8,0,1.1c0,0.4,0.1,0.8,0.1,1.1
		c0.1,0.3,0.1,0.6,0.2,0.8c0.1,0.2,0.1,0.4,0.2,0.5s0.1,0.2,0.1,0.3c0,0.1,0,0.1,0,0.1s-0.1,0-0.2,0c-0.2,0-0.3-0.1-0.5-0.2
		s-0.4-0.3-0.6-0.6c-0.2-0.3-0.3-0.6-0.5-1c-0.1-0.4-0.2-0.8-0.2-1.4c0-0.4,0-0.8,0-1.2c0-0.5,0.1-1,0.1-1.5s0.1-1,0.2-1.6
		s0.1-1,0.2-1.4s0.1-0.8,0.1-1.1C87.9,33,87.9,32.8,87.9,32.8z"/>
	<path class="st0" d="M91.8,35.4c0,0.2-0.1,0.3-0.2,0.4s-0.2,0.1-0.4,0.1c-0.2,0-0.3-0.1-0.5-0.1c-0.2-0.1-0.4-0.2-0.5-0.3
		c-0.2-0.1-0.3-0.2-0.4-0.3c-0.1-0.1-0.2-0.2-0.2-0.3c0-0.1,0-0.3,0.1-0.3s0.1-0.1,0.2-0.2s0.2-0.1,0.3-0.1s0.3,0,0.4,0
		s0.3,0,0.4,0.1s0.3,0.2,0.4,0.3c0.1,0.1,0.2,0.2,0.3,0.4C91.7,35.2,91.8,35.3,91.8,35.4z M93,38.9C93,38.8,93,38.8,93,38.9
		c0.2-0.1,0.2-0.1,0.2-0.1s0.1,0,0.1,0.1s0,0.1,0,0.1c0,0.1-0.1,0.2-0.1,0.4c-0.1,0.2-0.1,0.4-0.2,0.7c-0.1,0.2-0.2,0.5-0.3,0.7
		c-0.1,0.3-0.2,0.5-0.4,0.7c-0.1,0.2-0.3,0.4-0.4,0.5s-0.3,0.2-0.4,0.2l0,0c-0.4,0-0.7-0.1-0.9-0.3c-0.2-0.2-0.4-0.5-0.5-0.9
		c-0.1-0.3-0.2-0.7-0.2-1c0-0.4-0.1-0.7-0.1-0.9c0-0.3,0-0.6,0-0.8s0-0.4,0-0.6s0-0.3,0-0.4s0-0.2,0-0.3c0-0.1,0.1-0.2,0.2-0.2
		s0.3,0,0.5,0.1s0.3,0.2,0.5,0.3c0.1,0.1,0.2,0.3,0.2,0.4s0,0.2,0,0.4c0,0.1,0,0.3,0,0.4s0,0.3,0,0.4s0,0.3,0,0.4
		c0,0.6,0,1.1,0.1,1.5s0.2,0.7,0.3,0.9c0.1,0,0.2-0.1,0.3-0.3s0.2-0.3,0.3-0.4c0.1-0.2,0.2-0.3,0.3-0.5c0.1-0.2,0.2-0.4,0.3-0.5
		s0.1-0.3,0.2-0.5C93,39.2,93,39.1,93,38.9z"/>
	<path class="st0" d="M97.9,36.8c0,0.1,0,0.2,0,0.4c0,0.2-0.1,0.4-0.1,0.6s-0.1,0.5-0.1,0.8c-0.1,0.3-0.1,0.5-0.1,0.8
		s-0.1,0.5-0.1,0.7s0,0.4,0,0.5c0,0.4,0,0.8,0,1s0,0.4,0.1,0.5c0,0.1,0.1,0.2,0.1,0.3c0,0.1,0,0.1,0,0.2s-0.1,0.1-0.3,0.1
		s-0.4-0.1-0.6-0.2s-0.4-0.3-0.6-0.6c-0.2-0.3-0.3-0.7-0.3-1.1c0-0.3,0-0.7,0-1s0.1-0.7,0.1-1s0.1-0.6,0.1-0.9s0.1-0.5,0.1-0.8
		c-0.1,0.2-0.2,0.5-0.3,0.8s-0.2,0.6-0.3,1c-0.1,0.4-0.2,0.7-0.3,1.1c-0.1,0.4-0.2,0.7-0.3,1c-0.1,0.3-0.2,0.6-0.3,0.8
		c-0.1,0.2-0.2,0.4-0.3,0.5c0,0.1,0,0.1-0.1,0.1l0,0h-0.1c-0.3,0-0.5-0.1-0.7-0.3c-0.2-0.2-0.3-0.4-0.4-0.7c-0.1-0.3-0.2-0.6-0.3-1
		c-0.1-0.3-0.1-0.7-0.1-1s0-0.6,0-0.8s0-0.3,0-0.4s0-0.1,0-0.1s0,0,0-0.1s0,0,0-0.1v-0.1c0-0.1,0.1-0.1,0.3-0.1c0.2,0,0.4,0,0.6,0
		s0.4,0.1,0.6,0.2s0.3,0.2,0.3,0.4c0,0.1,0,0.2,0,0.3s0,0.3,0,0.5s0,0.4,0,0.6s0,0.3,0,0.4c0,0.2,0,0.3,0,0.4s0,0.3,0,0.4
		c0.1-0.2,0.2-0.5,0.3-0.8c0.1-0.3,0.2-0.6,0.3-1c0.1-0.3,0.2-0.7,0.4-1c0.1-0.3,0.3-0.6,0.4-0.9s0.3-0.5,0.4-0.7s0.3-0.3,0.4-0.4
		c0,0,0,0,0.1,0c0,0,0,0,0.1,0c0,0,0,0,0.1,0h0.1h0.1c0.2,0,0.3,0,0.3,0.1c0.2,0.1,0.3,0.1,0.5,0.2C97.8,36.4,97.9,36.6,97.9,36.8z"
		/>
	<path class="st0" d="M103.1,38.8C103.1,38.8,103.1,38.8,103.1,38.8l0.2-0.1c0,0,0.1,0,0.1,0.1s0,0.1,0,0.1s0,0.1-0.1,0.3
		c0,0.2-0.1,0.4-0.2,0.6s-0.2,0.5-0.3,0.7s-0.3,0.5-0.5,0.7s-0.4,0.4-0.6,0.5s-0.5,0.2-0.8,0.2c-0.4,0-0.8-0.1-1.1-0.2
		s-0.6-0.4-0.8-0.6c-0.2-0.3-0.4-0.5-0.5-0.8s-0.2-0.6-0.2-0.9c0-0.4,0-0.7,0.1-1.1s0.2-0.7,0.3-1c0.1-0.3,0.3-0.5,0.4-0.8
		c0.1-0.2,0.3-0.4,0.4-0.5s0.3-0.2,0.4-0.2c0.2,0,0.4-0.1,0.6-0.1s0.4,0,0.5,0c0.2,0,0.3,0.1,0.4,0.1c0.2,0.1,0.3,0.2,0.4,0.5
		c0.1,0.2,0.2,0.5,0.2,0.8c0,0.6-0.1,1.1-0.4,1.4S101,39,100.7,39c-0.1,0-0.3,0-0.4,0s-0.3-0.1-0.4-0.1c0,0.3,0,0.6,0.1,0.8
		s0.2,0.5,0.3,0.7c0.1,0.2,0.3,0.4,0.4,0.5c0.2,0.1,0.3,0.2,0.5,0.2s0.5-0.1,0.7-0.2s0.4-0.3,0.5-0.4s0.3-0.4,0.4-0.5
		c0.1-0.2,0.2-0.4,0.3-0.6s0.1-0.3,0.2-0.5C103.1,38.9,103.1,38.9,103.1,38.8z M100.9,36.8c-0.2,0-0.3,0.1-0.4,0.2s-0.2,0.2-0.3,0.4
		S100,37.8,100,38c-0.1,0.2-0.1,0.5-0.1,0.7c0.2,0.1,0.5,0.1,0.6,0.1c0.2-0.1,0.3-0.2,0.4-0.3c0.1-0.1,0.2-0.3,0.3-0.5
		c0.1-0.2,0.1-0.4,0.1-0.6s0-0.3-0.1-0.4C101.1,36.9,101,36.8,100.9,36.8z"/>
	<path class="st0" d="M107.9,36.8c0,0.1,0,0.2,0,0.4c0,0.2-0.1,0.4-0.1,0.6s-0.1,0.5-0.1,0.8c-0.1,0.3-0.1,0.5-0.1,0.8
		s-0.1,0.5-0.1,0.7s0,0.4,0,0.5c0,0.4,0,0.8,0,1s0.1,0.4,0.1,0.5s0.1,0.2,0.1,0.3c0,0.1,0,0.1,0,0.2s-0.1,0.1-0.3,0.1
		c-0.2,0-0.4-0.1-0.6-0.2s-0.4-0.3-0.6-0.6s-0.3-0.7-0.3-1.1c0-0.3,0-0.7,0-1s0.1-0.7,0.1-1s0.1-0.6,0.1-0.9s0.1-0.5,0.1-0.8
		c-0.1,0.2-0.2,0.5-0.3,0.8c-0.1,0.3-0.2,0.6-0.3,1c-0.1,0.4-0.2,0.7-0.3,1.1c-0.1,0.4-0.2,0.7-0.3,1c-0.1,0.3-0.2,0.6-0.3,0.8
		s-0.2,0.4-0.3,0.5c0,0.1,0,0.1-0.1,0.1l0,0h-0.1c-0.3,0-0.5-0.1-0.7-0.3c-0.2-0.2-0.3-0.4-0.4-0.7c-0.1-0.3-0.2-0.6-0.3-1
		c-0.1-0.3-0.1-0.7-0.1-1s0-0.6,0-0.8s0-0.3,0-0.4s0-0.1,0-0.1s0,0,0-0.1c0,0,0,0,0-0.1v-0.1c0-0.1,0.1-0.1,0.3-0.1
		c0.2,0,0.4,0,0.6,0s0.4,0.1,0.6,0.2s0.3,0.2,0.3,0.4c0,0.1,0,0.2,0,0.3s0,0.3,0,0.5s0,0.4,0,0.6s0,0.3,0,0.4c0,0.2,0,0.3,0,0.4
		s0,0.3,0,0.4c0.1-0.2,0.2-0.5,0.3-0.8c0.1-0.3,0.2-0.6,0.3-1c0.1-0.3,0.2-0.7,0.4-1c0.1-0.3,0.3-0.6,0.4-0.9s0.3-0.5,0.4-0.7
		s0.3-0.3,0.4-0.4c0,0,0,0,0.1,0c0,0,0,0,0.1,0s0,0,0.1,0h0.1h0.1c0.2,0,0.3,0,0.3,0.1c0.2,0.1,0.3,0.1,0.5,0.2
		C107.8,36.4,107.9,36.6,107.9,36.8z"/>
</g>
</svg>
