<?xml version="1.0" encoding="UTF-8"?>
<svg id="Capa_2" xmlns="http://www.w3.org/2000/svg" viewBox="0 0 210.03 43.17">
  <defs>
    <style>
      .cls-1 {
        fill: #fff;
      }
    </style>
  </defs>
  <g id="Capa_1-2" data-name="Capa_1">
    <g>
      <path class="cls-1" d="M121.89,31.7c-1.82,1.87-4.17,2.81-7.06,2.81-2.72,0-5.03-.87-6.91-2.62-1.88-1.75-2.83-4.23-2.83-7.45,0-1.49.25-2.88.74-4.19.5-1.31,1.19-2.42,2.08-3.32.89-.91,1.93-1.6,3.12-2.08,1.18-.48,2.46-.72,3.84-.72,1.49,0,2.83.24,4.04.72,1.21.48,2.47,1.42,3.78,2.81,1.31,1.39,1.96,3.6,1.96,6.62s-.92,5.59-2.77,7.43ZM114.79,18.04c-1.51,0-2.67.57-3.47,1.71-.8,1.14-1.2,2.66-1.2,4.56s.43,3.47,1.28,4.62c.85,1.16,2.02,1.73,3.51,1.73s2.67-.57,3.47-1.71c.8-1.14,1.2-2.69,1.2-4.64s-.42-3.42-1.26-4.56c-.84-1.14-2.02-1.71-3.53-1.71Z"/>
      <path class="cls-1" d="M131.81,34.51c-1.54,0-2.68-.39-3.41-1.18-.73-.78-1.09-1.82-1.09-3.12V6.63l4.95-1.76v23.16c0,.74.09,1.27.27,1.57.18.3.53.45,1.05.45.39,0,.87-.07,1.45-.21l.62,3.67c-.66.36-1.31.61-1.94.76-.63.15-1.27.23-1.9.23Z"/>
      <path class="cls-1" d="M149.83,34.09l-.83-1.73c-.72.63-1.54,1.15-2.48,1.55-.94.4-2,.6-3.18.6-1.82,0-3.34-.57-4.56-1.71-1.22-1.14-1.84-2.65-1.84-4.55,0-2,.73-3.56,2.19-4.69,1.46-1.12,3.45-1.69,5.98-1.69l3.47-.16v-.5c0-1.1-.34-1.93-1.03-2.48-.69-.55-1.58-.83-2.68-.83s-1.95.12-2.7.37c-.76.25-1.53.6-2.33,1.07l-1.61-3.1c1.24-.83,2.45-1.39,3.63-1.69,1.18-.3,2.52-.45,4-.45,2.53,0,4.46.56,5.78,1.67,1.32,1.11,1.98,2.92,1.98,5.43v7.72c0,2.67.12,4.39.37,5.16h-4.17ZM148.59,25.18l-2.81.08c-2.59,0-3.88.87-3.88,2.62,0,.85.27,1.51.8,1.99.54.48,1.33.72,2.37.72.83,0,1.51-.11,2.04-.33.54-.22,1.02-.52,1.46-.9v-4.18Z"/>
      <path class="cls-1" d="M167.53,19.15c-.36-.22-.74-.38-1.14-.47-.4-.1-.79-.14-1.18-.14-1.24,0-2.49.58-3.76,1.73v13.83h-4.95v-18.04l4.17-1.48.54,2.06c.99-.85,1.92-1.49,2.79-1.9.87-.41,1.74-.62,2.62-.62,1.05,0,1.95.28,2.72.83l-1.82,4.21Z"/>
      <path class="cls-1" d="M173.49,12.85c-.83,0-1.54-.29-2.15-.87-.61-.58-.91-1.29-.91-2.15s.29-1.53.87-2.1c.58-.58,1.31-.87,2.19-.87s1.58.29,2.19.87c.6.58.91,1.28.91,2.1s-.3,1.53-.89,2.13c-.59.59-1.33.89-2.21.89ZM171.01,34.09v-17.76l4.95-1.76v19.52h-4.95Z"/>
      <path class="cls-1" d="M182.89,25.63c0,1.43.53,2.61,1.59,3.53,1.06.92,2.36,1.38,3.9,1.38.94,0,1.8-.11,2.58-.33.78-.22,1.62-.56,2.5-1.03l1.2,3.18c-1.05.74-2.18,1.29-3.41,1.63-1.22.34-2.46.52-3.69.52-3.19,0-5.61-.98-7.24-2.95-1.64-1.97-2.46-4.38-2.46-7.24s.81-5.28,2.42-7.24c1.61-1.97,3.76-2.95,6.46-2.95s4.76.92,6.36,2.77c1.6,1.84,2.39,4.28,2.39,7.31v1.44h-12.59ZM186.65,17.83c-1.16,0-2.08.43-2.79,1.28-.7.85-1.05,1.86-1.05,3.01h7.59c0-1.16-.32-2.16-.97-3.01-.65-.85-1.58-1.28-2.79-1.28Z"/>
      <path class="cls-1" d="M208.22,19.15c-.36-.22-.74-.38-1.14-.47-.4-.1-.79-.14-1.18-.14-1.24,0-2.49.58-3.76,1.73v13.83h-4.95v-18.04l4.17-1.48.54,2.06c.99-.85,1.92-1.49,2.79-1.9.87-.41,1.74-.62,2.62-.62,1.05,0,1.95.28,2.72.83l-1.82,4.21Z"/>
      <path class="cls-1" d="M102.45,9.16c-1.76-1.51-4.14-2.27-7.14-2.27h-6.98v27.2h4.95v-9.49h1.37c3.56,0,6.19-.92,7.89-2.76,1.7-1.84,2.55-3.91,2.55-6.19,0-2.81-.88-4.97-2.64-6.48ZM98.77,19.39c-.86.86-2.16,1.28-3.9,1.28h-1.58v-9.62h1.5c1.72,0,3.02.43,3.92,1.31.9.87,1.35,2,1.35,3.38,0,1.58-.43,2.79-1.29,3.65Z"/>
      <path class="cls-1" d="M80.51,14.65l-3.66,11.84c-.3.97-.51,1.83-.63,2.56h-.09c-.43-.89-.9-1.86-1.13-2.6l-3.62-11.81h-6.02l7.88,19.37-1.02,2.41c-.61,1.45-1.68,2.18-3.22,2.18-.93,0-1.8-.23-2.6-.7v4.78c.93.33,2.13.49,3.58.49,3.82,0,6.67-2.52,8.57-7.56l7.88-20.96h-5.93Z"/>
      <g>
        <polygon class="cls-1" points="16.84 27.37 22.1 25.15 30.78 37.37 25.1 39.02 16.84 27.37"/>
        <polygon class="cls-1" points="19.42 11.09 23.35 0 18.09 2.22 15.56 9.36 19.42 11.09"/>
        <polygon class="cls-1" points="5.26 6.3 0 8.52 8.27 20.17 4.33 31.26 9.32 29.82 13.52 17.95 5.26 6.3"/>
      </g>
      <g>
        <path class="cls-1" d="M55.77,6.88s-6.29,18.49-6.63,19.99h-.11c-.2-1.3-6.52-19.99-6.52-19.99h-8.45v12.11l4.91,1.68c-.04-4.02-.09-7.65-.16-8.7h.17c.39,2.03,7.33,22.08,7.33,22.08h5s6.9-20.41,7.22-22.08h.15c-.15,2.12-.23,22.08-.23,22.08h5.01V6.88h-7.7Z"/>
        <path class="cls-1" d="M34.05,34.06h5.01s-.03-7.14-.09-13.35l-4.91,1.74v11.6Z"/>
        <path class="cls-1" d="M39.01,20.69h-.04s0,0,0,.01h.04Z"/>
      </g>
    </g>
  </g>
</svg>